solid CAD Exchanger 3.19.0 (cadexchanger.com)
facet normal 1 0 0
 outer loop
  vertex 9 16.5 1.5
  vertex 9 13.5 1.5
  vertex 9 13.5 0
 endloop
endfacet
facet normal 1 0 -0
 outer loop
  vertex 9 16.5 0
  vertex 9 16.5 1.5
  vertex 9 13.5 0
 endloop
endfacet
facet normal 0.996194698092 -0.0871557427477 0
 outer loop
  vertex 9.01519224699 16.6736481777 1.5
  vertex 9 16.5 1.5
  vertex 9 16.5 0
 endloop
endfacet
facet normal 0.965925826289 -0.258819045103 0
 outer loop
  vertex 9.01519224699 16.6736481777 0
  vertex 9.06030737921 16.8420201433 0
  vertex 9.01519224699 16.6736481777 1.5
 endloop
endfacet
facet normal 0.819152044289 -0.573576436351 0
 outer loop
  vertex 9.13397459622 17 0
  vertex 9.23395555688 17.1427876097 0
  vertex 9.13397459622 17 1.5
 endloop
endfacet
facet normal 0.573576436351 -0.819152044289 0
 outer loop
  vertex 9.35721239031 17.2660444431 0
  vertex 9.5 17.3660254038 0
  vertex 9.35721239031 17.2660444431 1.5
 endloop
endfacet
facet normal 0.258819045103 -0.965925826289 0
 outer loop
  vertex 9.65797985667 17.4396926208 0
  vertex 9.82635182233 17.484807753 0
  vertex 9.65797985667 17.4396926208 1.5
 endloop
endfacet
facet normal 0.0871557427477 -0.996194698092 0
 outer loop
  vertex 9.82635182233 17.484807753 0
  vertex 10 17.5 0
  vertex 9.82635182233 17.484807753 1.5
 endloop
endfacet
facet normal 0.573576436351 -0.819152044289 0
 outer loop
  vertex 9.5 17.3660254038 0
  vertex 9.5 17.3660254038 1.5
  vertex 9.35721239031 17.2660444431 1.5
 endloop
endfacet
facet normal 0.422618261741 -0.906307787037 0
 outer loop
  vertex 9.65797985667 17.4396926208 0
  vertex 9.65797985667 17.4396926208 1.5
  vertex 9.5 17.3660254038 1.5
 endloop
endfacet
facet normal 0.258819045103 -0.965925826289 0
 outer loop
  vertex 9.82635182233 17.484807753 0
  vertex 9.82635182233 17.484807753 1.5
  vertex 9.65797985667 17.4396926208 1.5
 endloop
endfacet
facet normal 0.0871557427477 -0.996194698092 0
 outer loop
  vertex 10 17.5 0
  vertex 10 17.5 1.5
  vertex 9.82635182233 17.484807753 1.5
 endloop
endfacet
facet normal 0.707106781187 -0.707106781187 0
 outer loop
  vertex 9.35721239031 17.2660444431 0
  vertex 9.35721239031 17.2660444431 1.5
  vertex 9.23395555688 17.1427876097 1.5
 endloop
endfacet
facet normal 0.422618261741 -0.906307787037 0
 outer loop
  vertex 9.5 17.3660254038 0
  vertex 9.65797985667 17.4396926208 0
  vertex 9.5 17.3660254038 1.5
 endloop
endfacet
facet normal 0.819152044289 -0.573576436351 0
 outer loop
  vertex 9.23395555688 17.1427876097 0
  vertex 9.23395555688 17.1427876097 1.5
  vertex 9.13397459622 17 1.5
 endloop
endfacet
facet normal 0.707106781187 -0.707106781187 0
 outer loop
  vertex 9.23395555688 17.1427876097 0
  vertex 9.35721239031 17.2660444431 0
  vertex 9.23395555688 17.1427876097 1.5
 endloop
endfacet
facet normal 0.906307787037 -0.422618261741 0
 outer loop
  vertex 9.13397459622 17 0
  vertex 9.13397459622 17 1.5
  vertex 9.06030737921 16.8420201433 1.5
 endloop
endfacet
facet normal 0.906307787037 -0.422618261741 0
 outer loop
  vertex 9.06030737921 16.8420201433 0
  vertex 9.13397459622 17 0
  vertex 9.06030737921 16.8420201433 1.5
 endloop
endfacet
facet normal 0.965925826289 -0.258819045103 0
 outer loop
  vertex 9.06030737921 16.8420201433 0
  vertex 9.06030737921 16.8420201433 1.5
  vertex 9.01519224699 16.6736481777 1.5
 endloop
endfacet
facet normal 0.996194698092 -0.0871557427477 0
 outer loop
  vertex 9.01519224699 16.6736481777 0
  vertex 9.01519224699 16.6736481777 1.5
  vertex 9 16.5 0
 endloop
endfacet
facet normal -0 -1 0
 outer loop
  vertex 13 17.5 1.5
  vertex 10 17.5 1.5
  vertex 10 17.5 0
 endloop
endfacet
facet normal 0 -1 0
 outer loop
  vertex 13 17.5 0
  vertex 13 17.5 1.5
  vertex 10 17.5 0
 endloop
endfacet
facet normal -0.0871557427477 -0.996194698092 0
 outer loop
  vertex 13.1736481777 17.484807753 1.5
  vertex 13 17.5 1.5
  vertex 13 17.5 0
 endloop
endfacet
facet normal -0.258819045103 -0.965925826289 0
 outer loop
  vertex 13.1736481777 17.484807753 0
  vertex 13.3420201433 17.4396926208 0
  vertex 13.1736481777 17.484807753 1.5
 endloop
endfacet
facet normal -0.573576436351 -0.819152044289 0
 outer loop
  vertex 13.5 17.3660254038 0
  vertex 13.6427876097 17.2660444431 0
  vertex 13.5 17.3660254038 1.5
 endloop
endfacet
facet normal -0.819152044289 -0.573576436351 0
 outer loop
  vertex 13.7660444431 17.1427876097 0
  vertex 13.8660254038 17 0
  vertex 13.7660444431 17.1427876097 1.5
 endloop
endfacet
facet normal -0.965925826289 -0.258819045103 0
 outer loop
  vertex 13.9396926208 16.8420201433 0
  vertex 13.984807753 16.6736481777 0
  vertex 13.9396926208 16.8420201433 1.5
 endloop
endfacet
facet normal -0.996194698092 -0.0871557427477 0
 outer loop
  vertex 13.984807753 16.6736481777 0
  vertex 14 16.5 0
  vertex 13.984807753 16.6736481777 1.5
 endloop
endfacet
facet normal -0.819152044289 -0.573576436351 0
 outer loop
  vertex 13.8660254038 17 0
  vertex 13.8660254038 17 1.5
  vertex 13.7660444431 17.1427876097 1.5
 endloop
endfacet
facet normal -0.906307787037 -0.422618261741 0
 outer loop
  vertex 13.9396926208 16.8420201433 0
  vertex 13.9396926208 16.8420201433 1.5
  vertex 13.8660254038 17 1.5
 endloop
endfacet
facet normal -0.996194698092 -0.0871557427477 -0
 outer loop
  vertex 14 16.5 1.5
  vertex 13.984807753 16.6736481777 1.5
  vertex 14 16.5 0
 endloop
endfacet
facet normal -0.965925826289 -0.258819045103 0
 outer loop
  vertex 13.984807753 16.6736481777 0
  vertex 13.984807753 16.6736481777 1.5
  vertex 13.9396926208 16.8420201433 1.5
 endloop
endfacet
facet normal -0.707106781187 -0.707106781187 0
 outer loop
  vertex 13.7660444431 17.1427876097 0
  vertex 13.7660444431 17.1427876097 1.5
  vertex 13.6427876097 17.2660444431 1.5
 endloop
endfacet
facet normal -0.906307787037 -0.422618261741 0
 outer loop
  vertex 13.8660254038 17 0
  vertex 13.9396926208 16.8420201433 0
  vertex 13.8660254038 17 1.5
 endloop
endfacet
facet normal -0.573576436351 -0.819152044289 0
 outer loop
  vertex 13.6427876097 17.2660444431 0
  vertex 13.6427876097 17.2660444431 1.5
  vertex 13.5 17.3660254038 1.5
 endloop
endfacet
facet normal -0.707106781187 -0.707106781187 0
 outer loop
  vertex 13.6427876097 17.2660444431 0
  vertex 13.7660444431 17.1427876097 0
  vertex 13.6427876097 17.2660444431 1.5
 endloop
endfacet
facet normal -0.422618261741 -0.906307787037 0
 outer loop
  vertex 13.5 17.3660254038 0
  vertex 13.5 17.3660254038 1.5
  vertex 13.3420201433 17.4396926208 1.5
 endloop
endfacet
facet normal -0.422618261741 -0.906307787037 0
 outer loop
  vertex 13.3420201433 17.4396926208 0
  vertex 13.5 17.3660254038 0
  vertex 13.3420201433 17.4396926208 1.5
 endloop
endfacet
facet normal -0.258819045103 -0.965925826289 0
 outer loop
  vertex 13.3420201433 17.4396926208 0
  vertex 13.3420201433 17.4396926208 1.5
  vertex 13.1736481777 17.484807753 1.5
 endloop
endfacet
facet normal -0.0871557427477 -0.996194698092 0
 outer loop
  vertex 13.1736481777 17.484807753 0
  vertex 13.1736481777 17.484807753 1.5
  vertex 13 17.5 0
 endloop
endfacet
facet normal -1 0 0
 outer loop
  vertex 14 13.5 1.5
  vertex 14 16.5 1.5
  vertex 14 16.5 0
 endloop
endfacet
facet normal -1 0 0
 outer loop
  vertex 14 13.5 0
  vertex 14 13.5 1.5
  vertex 14 16.5 0
 endloop
endfacet
facet normal -0.996194698092 0.0871557427477 0
 outer loop
  vertex 13.984807753 13.3263518223 1.5
  vertex 14 13.5 1.5
  vertex 14 13.5 0
 endloop
endfacet
facet normal -0.965925826289 0.258819045103 0
 outer loop
  vertex 13.984807753 13.3263518223 0
  vertex 13.9396926208 13.1579798567 0
  vertex 13.984807753 13.3263518223 1.5
 endloop
endfacet
facet normal -0.819152044289 0.573576436351 0
 outer loop
  vertex 13.8660254038 13 0
  vertex 13.7660444431 12.8572123903 0
  vertex 13.8660254038 13 1.5
 endloop
endfacet
facet normal -0.573576436351 0.819152044289 0
 outer loop
  vertex 13.6427876097 12.7339555569 0
  vertex 13.5 12.6339745962 0
  vertex 13.6427876097 12.7339555569 1.5
 endloop
endfacet
facet normal -0.258819045103 0.965925826289 0
 outer loop
  vertex 13.3420201433 12.5603073792 0
  vertex 13.1736481777 12.515192247 0
  vertex 13.3420201433 12.5603073792 1.5
 endloop
endfacet
facet normal -0.0871557427477 0.996194698092 0
 outer loop
  vertex 13.1736481777 12.515192247 0
  vertex 13 12.5 0
  vertex 13.1736481777 12.515192247 1.5
 endloop
endfacet
facet normal -0.573576436351 0.819152044289 0
 outer loop
  vertex 13.5 12.6339745962 0
  vertex 13.5 12.6339745962 1.5
  vertex 13.6427876097 12.7339555569 1.5
 endloop
endfacet
facet normal -0.422618261741 0.906307787037 0
 outer loop
  vertex 13.3420201433 12.5603073792 0
  vertex 13.3420201433 12.5603073792 1.5
  vertex 13.5 12.6339745962 1.5
 endloop
endfacet
facet normal -0.0871557427477 0.996194698092 0
 outer loop
  vertex 13 12.5 1.5
  vertex 13.1736481777 12.515192247 1.5
  vertex 13 12.5 0
 endloop
endfacet
facet normal -0.258819045103 0.965925826289 0
 outer loop
  vertex 13.1736481777 12.515192247 0
  vertex 13.1736481777 12.515192247 1.5
  vertex 13.3420201433 12.5603073792 1.5
 endloop
endfacet
facet normal -0.707106781187 0.707106781187 0
 outer loop
  vertex 13.6427876097 12.7339555569 0
  vertex 13.6427876097 12.7339555569 1.5
  vertex 13.7660444431 12.8572123903 1.5
 endloop
endfacet
facet normal -0.422618261741 0.906307787037 0
 outer loop
  vertex 13.5 12.6339745962 0
  vertex 13.3420201433 12.5603073792 0
  vertex 13.5 12.6339745962 1.5
 endloop
endfacet
facet normal -0.819152044289 0.573576436351 0
 outer loop
  vertex 13.7660444431 12.8572123903 0
  vertex 13.7660444431 12.8572123903 1.5
  vertex 13.8660254038 13 1.5
 endloop
endfacet
facet normal -0.707106781187 0.707106781187 0
 outer loop
  vertex 13.7660444431 12.8572123903 0
  vertex 13.6427876097 12.7339555569 0
  vertex 13.7660444431 12.8572123903 1.5
 endloop
endfacet
facet normal -0.906307787037 0.422618261741 0
 outer loop
  vertex 13.8660254038 13 0
  vertex 13.8660254038 13 1.5
  vertex 13.9396926208 13.1579798567 1.5
 endloop
endfacet
facet normal -0.906307787037 0.422618261741 0
 outer loop
  vertex 13.9396926208 13.1579798567 0
  vertex 13.8660254038 13 0
  vertex 13.9396926208 13.1579798567 1.5
 endloop
endfacet
facet normal -0.965925826289 0.258819045103 0
 outer loop
  vertex 13.9396926208 13.1579798567 0
  vertex 13.9396926208 13.1579798567 1.5
  vertex 13.984807753 13.3263518223 1.5
 endloop
endfacet
facet normal -0.996194698092 0.0871557427477 0
 outer loop
  vertex 13.984807753 13.3263518223 0
  vertex 13.984807753 13.3263518223 1.5
  vertex 14 13.5 0
 endloop
endfacet
facet normal 0 1 0
 outer loop
  vertex 13 12.5 1.5
  vertex 13 12.5 0
  vertex 10 12.5 1.5
 endloop
endfacet
facet normal 0 1 0
 outer loop
  vertex 10 12.5 0
  vertex 10 12.5 1.5
  vertex 13 12.5 0
 endloop
endfacet
facet normal 0.494292881605 -0.869295431481 0
 outer loop
  vertex 6.51325756718 27.0417326294 1.5
  vertex 5.35362980014 26.3823529412 1.5
  vertex 5.35362980014 26.3823529412 0
 endloop
endfacet
facet normal 0.337896271756 -0.941183355958 0
 outer loop
  vertex 6.51325756718 27.0417326294 0
  vertex 7.76878280511 27.4924814599 0
  vertex 6.51325756718 27.0417326294 1.5
 endloop
endfacet
facet normal 5.32646398805e-15 -1 0
 outer loop
  vertex 9.08300709687 27.7212447486 0
  vertex 10.4169929031 27.7212447486 0
  vertex 9.08300709687 27.7212447486 1.5
 endloop
endfacet
facet normal -0.337896271756 -0.941183355958 0
 outer loop
  vertex 11.7312171949 27.4924814599 0
  vertex 12.9867424328 27.0417326294 0
  vertex 11.7312171949 27.4924814599 1.5
 endloop
endfacet
facet normal -0.494292881605 -0.869295431481 0
 outer loop
  vertex 12.9867424328 27.0417326294 0
  vertex 14.1463701999 26.3823529412 0
  vertex 12.9867424328 27.0417326294 1.5
 endloop
endfacet
facet normal -0.171488547783 -0.985186113371 0
 outer loop
  vertex 11.7312171949 27.4924814599 0
  vertex 11.7312171949 27.4924814599 1.5
  vertex 10.4169929031 27.7212447486 1.5
 endloop
endfacet
facet normal -0.494292881605 -0.869295431481 -0
 outer loop
  vertex 14.1463701999 26.3823529412 1.5
  vertex 12.9867424328 27.0417326294 1.5
  vertex 14.1463701999 26.3823529412 0
 endloop
endfacet
facet normal -0.337896271756 -0.941183355958 0
 outer loop
  vertex 12.9867424328 27.0417326294 0
  vertex 12.9867424328 27.0417326294 1.5
  vertex 11.7312171949 27.4924814599 1.5
 endloop
endfacet
facet normal 5.32646398805e-15 -1 0
 outer loop
  vertex 10.4169929031 27.7212447486 0
  vertex 10.4169929031 27.7212447486 1.5
  vertex 9.08300709687 27.7212447486 1.5
 endloop
endfacet
facet normal -0.171488547783 -0.985186113371 0
 outer loop
  vertex 10.4169929031 27.7212447486 0
  vertex 11.7312171949 27.4924814599 0
  vertex 10.4169929031 27.7212447486 1.5
 endloop
endfacet
facet normal 0.171488547783 -0.985186113371 0
 outer loop
  vertex 9.08300709687 27.7212447486 0
  vertex 9.08300709687 27.7212447486 1.5
  vertex 7.76878280511 27.4924814599 1.5
 endloop
endfacet
facet normal 0.171488547783 -0.985186113371 0
 outer loop
  vertex 7.76878280511 27.4924814599 0
  vertex 9.08300709687 27.7212447486 0
  vertex 7.76878280511 27.4924814599 1.5
 endloop
endfacet
facet normal 0.337896271756 -0.941183355958 0
 outer loop
  vertex 7.76878280511 27.4924814599 0
  vertex 7.76878280511 27.4924814599 1.5
  vertex 6.51325756718 27.0417326294 1.5
 endloop
endfacet
facet normal 0.494292881605 -0.869295431481 0
 outer loop
  vertex 6.51325756718 27.0417326294 0
  vertex 6.51325756718 27.0417326294 1.5
  vertex 5.35362980014 26.3823529412 0
 endloop
endfacet
facet normal -1 -4.2970063128e-17 0
 outer loop
  vertex 3.2227547346e-17 5 1.5
  vertex -6.12323399574e-16 20 1.5
  vertex -6.12323399574e-16 20 0
 endloop
endfacet
facet normal -1 -4.2970063128e-17 0
 outer loop
  vertex 3.2227547346e-17 5 0
  vertex 3.2227547346e-17 5 1.5
  vertex -6.12323399574e-16 20 0
 endloop
endfacet
facet normal -0.996194698092 -0.0871557427477 0
 outer loop
  vertex 0.075961234939 4.13175911167 0
  vertex 0.075961234939 4.13175911167 1.5
  vertex 3.2227547346e-17 5 0
 endloop
endfacet
facet normal -0.965925826289 -0.258819045103 0
 outer loop
  vertex 0.30153689607 3.28989928337 0
  vertex 0.30153689607 3.28989928337 1.5
  vertex 0.075961234939 4.13175911167 0
 endloop
endfacet
facet normal -0.906307787037 -0.422618261741 0
 outer loop
  vertex 0.669872981078 2.5 0
  vertex 0.669872981078 2.5 1.5
  vertex 0.30153689607 3.28989928337 0
 endloop
endfacet
facet normal -0.819152044289 -0.573576436351 0
 outer loop
  vertex 1.16977778441 1.78606195157 0
  vertex 1.16977778441 1.78606195157 1.5
  vertex 0.669872981078 2.5 0
 endloop
endfacet
facet normal -0.707106781187 -0.707106781187 0
 outer loop
  vertex 1.78606195157 1.16977778441 0
  vertex 1.78606195157 1.16977778441 1.5
  vertex 1.16977778441 1.78606195157 0
 endloop
endfacet
facet normal -0.573576436351 -0.819152044289 0
 outer loop
  vertex 2.5 0.669872981078 0
  vertex 2.5 0.669872981078 1.5
  vertex 1.78606195157 1.16977778441 0
 endloop
endfacet
facet normal -0.422618261741 -0.906307787037 0
 outer loop
  vertex 3.28989928337 0.30153689607 0
  vertex 3.28989928337 0.30153689607 1.5
  vertex 2.5 0.669872981078 0
 endloop
endfacet
facet normal -0.258819045103 -0.965925826289 0
 outer loop
  vertex 4.13175911167 0.075961234939 0
  vertex 4.13175911167 0.075961234939 1.5
  vertex 3.28989928337 0.30153689607 0
 endloop
endfacet
facet normal -0.0871557427477 -0.996194698092 0
 outer loop
  vertex 5 0 0
  vertex 5 0 1.5
  vertex 4.13175911167 0.075961234939 0
 endloop
endfacet
facet normal -0.0871557427477 -0.996194698092 -0
 outer loop
  vertex 4.13175911167 0.075961234939 1.5
  vertex 4.13175911167 0.075961234939 0
  vertex 5 0 1.5
 endloop
endfacet
facet normal -0.258819045103 -0.965925826289 -0
 outer loop
  vertex 3.28989928337 0.30153689607 1.5
  vertex 3.28989928337 0.30153689607 0
  vertex 4.13175911167 0.075961234939 1.5
 endloop
endfacet
facet normal -0.422618261741 -0.906307787037 -0
 outer loop
  vertex 2.5 0.669872981078 1.5
  vertex 2.5 0.669872981078 0
  vertex 3.28989928337 0.30153689607 1.5
 endloop
endfacet
facet normal -0.573576436351 -0.819152044289 -0
 outer loop
  vertex 1.78606195157 1.16977778441 1.5
  vertex 1.78606195157 1.16977778441 0
  vertex 2.5 0.669872981078 1.5
 endloop
endfacet
facet normal -0.707106781187 -0.707106781187 -0
 outer loop
  vertex 1.16977778441 1.78606195157 1.5
  vertex 1.16977778441 1.78606195157 0
  vertex 1.78606195157 1.16977778441 1.5
 endloop
endfacet
facet normal -0.819152044289 -0.573576436351 -0
 outer loop
  vertex 0.669872981078 2.5 1.5
  vertex 0.669872981078 2.5 0
  vertex 1.16977778441 1.78606195157 1.5
 endloop
endfacet
facet normal -0.906307787037 -0.422618261741 -0
 outer loop
  vertex 0.30153689607 3.28989928337 1.5
  vertex 0.30153689607 3.28989928337 0
  vertex 0.669872981078 2.5 1.5
 endloop
endfacet
facet normal -0.965925826289 -0.258819045103 -0
 outer loop
  vertex 0.075961234939 4.13175911167 1.5
  vertex 0.075961234939 4.13175911167 0
  vertex 0.30153689607 3.28989928337 1.5
 endloop
endfacet
facet normal -0.996194698092 -0.0871557427477 -0
 outer loop
  vertex 3.2227547346e-17 5 1.5
  vertex 3.2227547346e-17 5 0
  vertex 0.075961234939 4.13175911167 1.5
 endloop
endfacet
facet normal -0 -1 0
 outer loop
  vertex 65.5 0 1.5
  vertex 5 0 1.5
  vertex 5 0 0
 endloop
endfacet
facet normal 0 -1 0
 outer loop
  vertex 65.5 0 0
  vertex 65.5 0 1.5
  vertex 5 0 0
 endloop
endfacet
facet normal 0.0871557427477 -0.996194698092 0
 outer loop
  vertex 66.3682408883 0.075961234939 0
  vertex 66.3682408883 0.075961234939 1.5
  vertex 65.5 0 0
 endloop
endfacet
facet normal 0.258819045103 -0.965925826289 0
 outer loop
  vertex 67.2101007166 0.30153689607 0
  vertex 67.2101007166 0.30153689607 1.5
  vertex 66.3682408883 0.075961234939 0
 endloop
endfacet
facet normal 0.422618261741 -0.906307787037 0
 outer loop
  vertex 68 0.669872981078 0
  vertex 68 0.669872981078 1.5
  vertex 67.2101007166 0.30153689607 0
 endloop
endfacet
facet normal 0.573576436351 -0.819152044289 0
 outer loop
  vertex 68.7139380484 1.16977778441 0
  vertex 68.7139380484 1.16977778441 1.5
  vertex 68 0.669872981078 0
 endloop
endfacet
facet normal 0.707106781187 -0.707106781187 0
 outer loop
  vertex 69.3302222156 1.78606195157 0
  vertex 69.3302222156 1.78606195157 1.5
  vertex 68.7139380484 1.16977778441 0
 endloop
endfacet
facet normal 0.819152044289 -0.573576436351 0
 outer loop
  vertex 69.8301270189 2.5 0
  vertex 69.8301270189 2.5 1.5
  vertex 69.3302222156 1.78606195157 0
 endloop
endfacet
facet normal 0.906307787037 -0.422618261741 0
 outer loop
  vertex 70.1984631039 3.28989928337 0
  vertex 70.1984631039 3.28989928337 1.5
  vertex 69.8301270189 2.5 0
 endloop
endfacet
facet normal 0.965925826289 -0.258819045103 0
 outer loop
  vertex 70.4240387651 4.13175911167 0
  vertex 70.4240387651 4.13175911167 1.5
  vertex 70.1984631039 3.28989928337 0
 endloop
endfacet
facet normal 0.996194698092 -0.0871557427477 0
 outer loop
  vertex 70.5 5 0
  vertex 70.5 5 1.5
  vertex 70.4240387651 4.13175911167 0
 endloop
endfacet
facet normal 0.996194698092 -0.0871557427477 0
 outer loop
  vertex 70.4240387651 4.13175911167 1.5
  vertex 70.4240387651 4.13175911167 0
  vertex 70.5 5 1.5
 endloop
endfacet
facet normal 0.965925826289 -0.258819045103 0
 outer loop
  vertex 70.1984631039 3.28989928337 1.5
  vertex 70.1984631039 3.28989928337 0
  vertex 70.4240387651 4.13175911167 1.5
 endloop
endfacet
facet normal 0.906307787037 -0.422618261741 0
 outer loop
  vertex 69.8301270189 2.5 1.5
  vertex 69.8301270189 2.5 0
  vertex 70.1984631039 3.28989928337 1.5
 endloop
endfacet
facet normal 0.819152044289 -0.573576436351 0
 outer loop
  vertex 69.3302222156 1.78606195157 1.5
  vertex 69.3302222156 1.78606195157 0
  vertex 69.8301270189 2.5 1.5
 endloop
endfacet
facet normal 0.707106781187 -0.707106781187 0
 outer loop
  vertex 68.7139380484 1.16977778441 1.5
  vertex 68.7139380484 1.16977778441 0
  vertex 69.3302222156 1.78606195157 1.5
 endloop
endfacet
facet normal 0.573576436351 -0.819152044289 0
 outer loop
  vertex 68 0.669872981078 1.5
  vertex 68 0.669872981078 0
  vertex 68.7139380484 1.16977778441 1.5
 endloop
endfacet
facet normal 0.422618261741 -0.906307787037 0
 outer loop
  vertex 67.2101007166 0.30153689607 1.5
  vertex 67.2101007166 0.30153689607 0
  vertex 68 0.669872981078 1.5
 endloop
endfacet
facet normal 0.258819045103 -0.965925826289 0
 outer loop
  vertex 66.3682408883 0.075961234939 1.5
  vertex 66.3682408883 0.075961234939 0
  vertex 67.2101007166 0.30153689607 1.5
 endloop
endfacet
facet normal 0.0871557427477 -0.996194698092 0
 outer loop
  vertex 65.5 0 1.5
  vertex 65.5 0 0
  vertex 66.3682408883 0.075961234939 1.5
 endloop
endfacet
facet normal 1 0 0
 outer loop
  vertex 70.5 19 1.5
  vertex 70.5 5 1.5
  vertex 70.5 5 0
 endloop
endfacet
facet normal 1 0 -0
 outer loop
  vertex 70.5 19 0
  vertex 70.5 19 1.5
  vertex 70.5 5 0
 endloop
endfacet
facet normal 0.996194698092 0.0871557427477 -0
 outer loop
  vertex 70.484807753 19.1736481777 0
  vertex 70.484807753 19.1736481777 1.5
  vertex 70.5 19 0
 endloop
endfacet
facet normal 0.965925826289 0.258819045103 -0
 outer loop
  vertex 70.4396926208 19.3420201433 0
  vertex 70.4396926208 19.3420201433 1.5
  vertex 70.484807753 19.1736481777 0
 endloop
endfacet
facet normal 0.906307787037 0.422618261741 -0
 outer loop
  vertex 70.3660254038 19.5 0
  vertex 70.3660254038 19.5 1.5
  vertex 70.4396926208 19.3420201433 0
 endloop
endfacet
facet normal 0.819152044289 0.573576436351 -0
 outer loop
  vertex 70.2660444431 19.6427876097 0
  vertex 70.2660444431 19.6427876097 1.5
  vertex 70.3660254038 19.5 0
 endloop
endfacet
facet normal 0.707106781187 0.707106781187 -0
 outer loop
  vertex 70.1427876097 19.7660444431 0
  vertex 70.1427876097 19.7660444431 1.5
  vertex 70.2660444431 19.6427876097 0
 endloop
endfacet
facet normal 0.573576436351 0.819152044289 -0
 outer loop
  vertex 70 19.8660254038 0
  vertex 70 19.8660254038 1.5
  vertex 70.1427876097 19.7660444431 0
 endloop
endfacet
facet normal 0.422618261741 0.906307787037 -0
 outer loop
  vertex 69.8420201433 19.9396926208 0
  vertex 69.8420201433 19.9396926208 1.5
  vertex 70 19.8660254038 0
 endloop
endfacet
facet normal 0.258819045103 0.965925826289 -0
 outer loop
  vertex 69.6736481777 19.984807753 0
  vertex 69.6736481777 19.984807753 1.5
  vertex 69.8420201433 19.9396926208 0
 endloop
endfacet
facet normal 0.0871557427477 0.996194698092 -0
 outer loop
  vertex 69.5 20 0
  vertex 69.5 20 1.5
  vertex 69.6736481777 19.984807753 0
 endloop
endfacet
facet normal 0.0871557427477 0.996194698092 0
 outer loop
  vertex 69.6736481777 19.984807753 1.5
  vertex 69.6736481777 19.984807753 0
  vertex 69.5 20 1.5
 endloop
endfacet
facet normal 0.258819045103 0.965925826289 0
 outer loop
  vertex 69.8420201433 19.9396926208 1.5
  vertex 69.8420201433 19.9396926208 0
  vertex 69.6736481777 19.984807753 1.5
 endloop
endfacet
facet normal 0.422618261741 0.906307787037 0
 outer loop
  vertex 70 19.8660254038 1.5
  vertex 70 19.8660254038 0
  vertex 69.8420201433 19.9396926208 1.5
 endloop
endfacet
facet normal 0.573576436351 0.819152044289 0
 outer loop
  vertex 70.1427876097 19.7660444431 1.5
  vertex 70.1427876097 19.7660444431 0
  vertex 70 19.8660254038 1.5
 endloop
endfacet
facet normal 0.707106781187 0.707106781187 0
 outer loop
  vertex 70.2660444431 19.6427876097 1.5
  vertex 70.2660444431 19.6427876097 0
  vertex 70.1427876097 19.7660444431 1.5
 endloop
endfacet
facet normal 0.819152044289 0.573576436351 0
 outer loop
  vertex 70.3660254038 19.5 1.5
  vertex 70.3660254038 19.5 0
  vertex 70.2660444431 19.6427876097 1.5
 endloop
endfacet
facet normal 0.906307787037 0.422618261741 0
 outer loop
  vertex 70.4396926208 19.3420201433 1.5
  vertex 70.4396926208 19.3420201433 0
  vertex 70.3660254038 19.5 1.5
 endloop
endfacet
facet normal 0.965925826289 0.258819045103 0
 outer loop
  vertex 70.484807753 19.1736481777 1.5
  vertex 70.484807753 19.1736481777 0
  vertex 70.4396926208 19.3420201433 1.5
 endloop
endfacet
facet normal 0.996194698092 0.0871557427477 0
 outer loop
  vertex 70.5 19 1.5
  vertex 70.5 19 0
  vertex 70.484807753 19.1736481777 1.5
 endloop
endfacet
facet normal -0 1 0
 outer loop
  vertex 22.5293779191 20 1.5
  vertex 69.5 20 1.5
  vertex 69.5 20 0
 endloop
endfacet
facet normal 0 1 0
 outer loop
  vertex 22.5293779191 20 0
  vertex 22.5293779191 20 1.5
  vertex 69.5 20 0
 endloop
endfacet
facet normal 0 1 0
 outer loop
  vertex 12.1609126902 20 0
  vertex 7.33908730975 20 0
  vertex 7.33908730975 20 1.5
 endloop
endfacet
facet normal 0 1 0
 outer loop
  vertex 12.1609126902 20 1.5
  vertex 12.1609126902 20 0
  vertex 7.33908730975 20 1.5
 endloop
endfacet
facet normal -0.724259850446 0.68952713437 0
 outer loop
  vertex 3.28134269406 27.2951334915 0
  vertex 2.14602584701 26.1026287025 1.5
  vertex 3.28134269406 27.2951334915 1.5
 endloop
endfacet
facet normal -0.597905635696 0.801566498054 0
 outer loop
  vertex 4.60113404659 28.2795941563 0
  vertex 3.28134269406 27.2951334915 1.5
  vertex 4.60113404659 28.2795941563 1.5
 endloop
endfacet
facet normal -0.454500224499 0.890746622744 0
 outer loop
  vertex 6.06776182214 29.0279356445 0
  vertex 4.60113404659 28.2795941563 1.5
  vertex 6.06776182214 29.0279356445 1.5
 endloop
endfacet
facet normal -0.298133282001 0.954524251218 0
 outer loop
  vertex 7.63940042679 29.5188165988 0
  vertex 6.06776182214 29.0279356445 1.5
  vertex 7.63940042679 29.5188165988 1.5
 endloop
endfacet
facet normal -0.133264112972 0.991080559891 0
 outer loop
  vertex 9.27122954613 29.7382379747 0
  vertex 7.63940042679 29.5188165988 1.5
  vertex 9.27122954613 29.7382379747 1.5
 endloop
endfacet
facet normal 0.0354055095624 0.9993730284 -0
 outer loop
  vertex 10.9167123402 29.6799422682 0
  vertex 9.27122954613 29.7382379747 1.5
  vertex 10.9167123402 29.6799422682 1.5
 endloop
endfacet
facet normal 0.203065430461 0.979165170414 -0
 outer loop
  vertex 12.5289225907 29.3455919681 0
  vertex 10.9167123402 29.6799422682 1.5
  vertex 12.5289225907 29.3455919681 1.5
 endloop
endfacet
facet normal 0.36493428946 0.931033277803 -0
 outer loop
  vertex 14.0618829526 28.7447221456 0
  vertex 12.5289225907 29.3455919681 1.5
  vertex 14.0618829526 28.7447221456 1.5
 endloop
endfacet
facet normal 0.516395876997 0.856349985824 -0
 outer loop
  vertex 15.4718761456 27.8944685302 0
  vertex 14.0618829526 28.7447221456 1.5
  vertex 15.4718761456 27.8944685302 1.5
 endloop
endfacet
facet normal 0.653130780226 0.757245128027 -0
 outer loop
  vertex 16.7186916926 26.8190788303 0
  vertex 15.4718761456 27.8944685302 1.5
  vertex 16.7186916926 26.8190788303 1.5
 endloop
endfacet
facet normal 0.771239564928 0.636544997223 -0
 outer loop
  vertex 17.7667726502 25.5492212314 0
  vertex 16.7186916926 26.8190788303 1.5
  vertex 17.7667726502 25.5492212314 1.5
 endloop
endfacet
facet normal 0.867353980379 0.497691744677 -0
 outer loop
  vertex 18.586229629 24.121109795 0
  vertex 17.7667726502 25.5492212314 1.5
  vertex 18.586229629 24.121109795 1.5
 endloop
endfacet
facet normal 0.938733015823 0.344645216134 -0
 outer loop
  vertex 19.1536931858 22.5754716981 0
  vertex 18.586229629 24.121109795 1.5
  vertex 19.1536931858 22.5754716981 1.5
 endloop
endfacet
facet normal -0.829959473149 0.557823693411 0
 outer loop
  vertex 2.14602584701 26.1026287025 0
  vertex 1.22756070583 24.7360878874 1.5
  vertex 2.14602584701 26.1026287025 1.5
 endloop
endfacet
facet normal 0.938733015823 0.344645216134 -0
 outer loop
  vertex 18.586229629 24.121109795 0
  vertex 18.586229629 24.121109795 1.5
  vertex 19.1536931858 22.5754716981 0
 endloop
endfacet
facet normal -0.911990140127 0.410212121117 0
 outer loop
  vertex 1.22756070583 24.7360878874 0
  vertex 0.552140249175 23.2344823394 1.5
  vertex 1.22756070583 24.7360878874 1.5
 endloop
endfacet
facet normal 0.867353980379 0.497691744677 -0
 outer loop
  vertex 17.7667726502 25.5492212314 0
  vertex 17.7667726502 25.5492212314 1.5
  vertex 18.586229629 24.121109795 0
 endloop
endfacet
facet normal -0.968012483872 0.250902034803 0
 outer loop
  vertex 0.552140249175 23.2344823394 0
  vertex 0.139026257175 21.6406351559 1.5
  vertex 0.552140249175 23.2344823394 1.5
 endloop
endfacet
facet normal 0.771239564928 0.636544997223 -0
 outer loop
  vertex 16.7186916926 26.8190788303 0
  vertex 16.7186916926 26.8190788303 1.5
  vertex 17.7667726502 25.5492212314 0
 endloop
endfacet
facet normal -0.99642884761 0.0844366724238 0
 outer loop
  vertex 0.139026257175 21.6406351559 0
  vertex -6.12323399574e-16 20 1.5
  vertex 0.139026257175 21.6406351559 1.5
 endloop
endfacet
facet normal 0.653130780226 0.757245128027 -0
 outer loop
  vertex 15.4718761456 27.8944685302 0
  vertex 15.4718761456 27.8944685302 1.5
  vertex 16.7186916926 26.8190788303 0
 endloop
endfacet
facet normal 0.516395876997 0.856349985824 -0
 outer loop
  vertex 14.0618829526 28.7447221456 0
  vertex 14.0618829526 28.7447221456 1.5
  vertex 15.4718761456 27.8944685302 0
 endloop
endfacet
facet normal 0.36493428946 0.931033277803 -0
 outer loop
  vertex 12.5289225907 29.3455919681 0
  vertex 12.5289225907 29.3455919681 1.5
  vertex 14.0618829526 28.7447221456 0
 endloop
endfacet
facet normal 0.203065430461 0.979165170414 -0
 outer loop
  vertex 10.9167123402 29.6799422682 0
  vertex 10.9167123402 29.6799422682 1.5
  vertex 12.5289225907 29.3455919681 0
 endloop
endfacet
facet normal 0.0354055095624 0.9993730284 -0
 outer loop
  vertex 9.27122954613 29.7382379747 0
  vertex 9.27122954613 29.7382379747 1.5
  vertex 10.9167123402 29.6799422682 0
 endloop
endfacet
facet normal -0.133264112972 0.991080559891 0
 outer loop
  vertex 7.63940042679 29.5188165988 0
  vertex 7.63940042679 29.5188165988 1.5
  vertex 9.27122954613 29.7382379747 0
 endloop
endfacet
facet normal -0.298133282001 0.954524251218 0
 outer loop
  vertex 6.06776182214 29.0279356445 0
  vertex 6.06776182214 29.0279356445 1.5
  vertex 7.63940042679 29.5188165988 0
 endloop
endfacet
facet normal -0.454500224499 0.890746622744 0
 outer loop
  vertex 4.60113404659 28.2795941563 0
  vertex 4.60113404659 28.2795941563 1.5
  vertex 6.06776182214 29.0279356445 0
 endloop
endfacet
facet normal -0.597905635696 0.801566498054 0
 outer loop
  vertex 3.28134269406 27.2951334915 0
  vertex 3.28134269406 27.2951334915 1.5
  vertex 4.60113404659 28.2795941563 0
 endloop
endfacet
facet normal -0.724259850446 0.68952713437 0
 outer loop
  vertex 2.14602584701 26.1026287025 0
  vertex 2.14602584701 26.1026287025 1.5
  vertex 3.28134269406 27.2951334915 0
 endloop
endfacet
facet normal -0.829959473149 0.557823693411 0
 outer loop
  vertex 1.22756070583 24.7360878874 0
  vertex 1.22756070583 24.7360878874 1.5
  vertex 2.14602584701 26.1026287025 0
 endloop
endfacet
facet normal -0.911990140127 0.410212121117 0
 outer loop
  vertex 0.552140249175 23.2344823394 0
  vertex 0.552140249175 23.2344823394 1.5
  vertex 1.22756070583 24.7360878874 0
 endloop
endfacet
facet normal -0.968012483872 0.250902034803 0
 outer loop
  vertex 0.139026257175 21.6406351559 0
  vertex 0.139026257175 21.6406351559 1.5
  vertex 0.552140249175 23.2344823394 0
 endloop
endfacet
facet normal -0.99642884761 0.0844366724238 0
 outer loop
  vertex -6.12323399574e-16 20 0
  vertex -6.12323399574e-16 20 1.5
  vertex 0.139026257175 21.6406351559 0
 endloop
endfacet
facet normal 0.0871557427477 0.996194698092 0
 outer loop
  vertex 9.82635182233 12.515192247 1.5
  vertex 10 12.5 1.5
  vertex 10 12.5 0
 endloop
endfacet
facet normal 0.258819045103 0.965925826289 -0
 outer loop
  vertex 9.82635182233 12.515192247 0
  vertex 9.65797985667 12.5603073792 0
  vertex 9.82635182233 12.515192247 1.5
 endloop
endfacet
facet normal 0.573576436351 0.819152044289 -0
 outer loop
  vertex 9.5 12.6339745962 0
  vertex 9.35721239031 12.7339555569 0
  vertex 9.5 12.6339745962 1.5
 endloop
endfacet
facet normal 0.819152044289 0.573576436351 -0
 outer loop
  vertex 9.23395555688 12.8572123903 0
  vertex 9.13397459622 13 0
  vertex 9.23395555688 12.8572123903 1.5
 endloop
endfacet
facet normal 0.965925826289 0.258819045103 -0
 outer loop
  vertex 9.06030737921 13.1579798567 0
  vertex 9.01519224699 13.3263518223 0
  vertex 9.06030737921 13.1579798567 1.5
 endloop
endfacet
facet normal 0.996194698092 0.0871557427477 -0
 outer loop
  vertex 9.01519224699 13.3263518223 0
  vertex 9 13.5 0
  vertex 9.01519224699 13.3263518223 1.5
 endloop
endfacet
facet normal 0.819152044289 0.573576436351 -0
 outer loop
  vertex 9.13397459622 13 0
  vertex 9.13397459622 13 1.5
  vertex 9.23395555688 12.8572123903 1.5
 endloop
endfacet
facet normal 0.906307787037 0.422618261741 -0
 outer loop
  vertex 9.06030737921 13.1579798567 0
  vertex 9.06030737921 13.1579798567 1.5
  vertex 9.13397459622 13 1.5
 endloop
endfacet
facet normal 0.996194698092 0.0871557427477 0
 outer loop
  vertex 9 13.5 1.5
  vertex 9.01519224699 13.3263518223 1.5
  vertex 9 13.5 0
 endloop
endfacet
facet normal 0.965925826289 0.258819045103 -0
 outer loop
  vertex 9.01519224699 13.3263518223 0
  vertex 9.01519224699 13.3263518223 1.5
  vertex 9.06030737921 13.1579798567 1.5
 endloop
endfacet
facet normal 0.707106781187 0.707106781187 -0
 outer loop
  vertex 9.23395555688 12.8572123903 0
  vertex 9.23395555688 12.8572123903 1.5
  vertex 9.35721239031 12.7339555569 1.5
 endloop
endfacet
facet normal 0.906307787037 0.422618261741 -0
 outer loop
  vertex 9.13397459622 13 0
  vertex 9.06030737921 13.1579798567 0
  vertex 9.13397459622 13 1.5
 endloop
endfacet
facet normal 0.573576436351 0.819152044289 -0
 outer loop
  vertex 9.35721239031 12.7339555569 0
  vertex 9.35721239031 12.7339555569 1.5
  vertex 9.5 12.6339745962 1.5
 endloop
endfacet
facet normal 0.707106781187 0.707106781187 -0
 outer loop
  vertex 9.35721239031 12.7339555569 0
  vertex 9.23395555688 12.8572123903 0
  vertex 9.35721239031 12.7339555569 1.5
 endloop
endfacet
facet normal 0.422618261741 0.906307787037 -0
 outer loop
  vertex 9.5 12.6339745962 0
  vertex 9.5 12.6339745962 1.5
  vertex 9.65797985667 12.5603073792 1.5
 endloop
endfacet
facet normal 0.422618261741 0.906307787037 -0
 outer loop
  vertex 9.65797985667 12.5603073792 0
  vertex 9.5 12.6339745962 0
  vertex 9.65797985667 12.5603073792 1.5
 endloop
endfacet
facet normal 0.258819045103 0.965925826289 -0
 outer loop
  vertex 9.65797985667 12.5603073792 0
  vertex 9.65797985667 12.5603073792 1.5
  vertex 9.82635182233 12.515192247 1.5
 endloop
endfacet
facet normal 0.0871557427477 0.996194698092 -0
 outer loop
  vertex 9.82635182233 12.515192247 0
  vertex 9.82635182233 12.515192247 1.5
  vertex 10 12.5 0
 endloop
endfacet
facet normal 0 0 1
 outer loop
  vertex 0.30153689607 3.28989928337 1.5
  vertex 3.2227547346e-17 5 1.5
  vertex 0.075961234939 4.13175911167 1.5
 endloop
endfacet
facet normal 0 0 1
 outer loop
  vertex 0.669872981078 2.5 1.5
  vertex 3.2227547346e-17 5 1.5
  vertex 0.30153689607 3.28989928337 1.5
 endloop
endfacet
facet normal 0 0 1
 outer loop
  vertex 1.16977778441 1.78606195157 1.5
  vertex 3.2227547346e-17 5 1.5
  vertex 0.669872981078 2.5 1.5
 endloop
endfacet
facet normal 0 0 1
 outer loop
  vertex 1.78606195157 1.16977778441 1.5
  vertex 3.2227547346e-17 5 1.5
  vertex 1.16977778441 1.78606195157 1.5
 endloop
endfacet
facet normal 0 0 1
 outer loop
  vertex 2.5 0.669872981078 1.5
  vertex 3.2227547346e-17 5 1.5
  vertex 1.78606195157 1.16977778441 1.5
 endloop
endfacet
facet normal 0 0 1
 outer loop
  vertex 3.28989928337 0.30153689607 1.5
  vertex 3.2227547346e-17 5 1.5
  vertex 2.5 0.669872981078 1.5
 endloop
endfacet
facet normal 0 0 1
 outer loop
  vertex 4.13175911167 0.075961234939 1.5
  vertex 3.2227547346e-17 5 1.5
  vertex 3.28989928337 0.30153689607 1.5
 endloop
endfacet
facet normal 0 0 1
 outer loop
  vertex 5 0 1.5
  vertex 3.2227547346e-17 5 1.5
  vertex 4.13175911167 0.075961234939 1.5
 endloop
endfacet
facet normal -0 0 1
 outer loop
  vertex 22.5293779191 20 1.5
  vertex 65.5 0 1.5
  vertex 69.5 20 1.5
 endloop
endfacet
facet normal 0 0 1
 outer loop
  vertex 67.2101007166 0.30153689607 1.5
  vertex 65.5 0 1.5
  vertex 66.3682408883 0.075961234939 1.5
 endloop
endfacet
facet normal 0 0 1
 outer loop
  vertex 68 0.669872981078 1.5
  vertex 65.5 0 1.5
  vertex 67.2101007166 0.30153689607 1.5
 endloop
endfacet
facet normal 0 0 1
 outer loop
  vertex 68.7139380484 1.16977778441 1.5
  vertex 65.5 0 1.5
  vertex 68 0.669872981078 1.5
 endloop
endfacet
facet normal 0 0 1
 outer loop
  vertex 69.3302222156 1.78606195157 1.5
  vertex 65.5 0 1.5
  vertex 68.7139380484 1.16977778441 1.5
 endloop
endfacet
facet normal 0 0 1
 outer loop
  vertex 69.8301270189 2.5 1.5
  vertex 65.5 0 1.5
  vertex 69.3302222156 1.78606195157 1.5
 endloop
endfacet
facet normal 0 0 1
 outer loop
  vertex 70.1984631039 3.28989928337 1.5
  vertex 65.5 0 1.5
  vertex 69.8301270189 2.5 1.5
 endloop
endfacet
facet normal 0 0 1
 outer loop
  vertex 70.4240387651 4.13175911167 1.5
  vertex 65.5 0 1.5
  vertex 70.1984631039 3.28989928337 1.5
 endloop
endfacet
facet normal 0 0 1
 outer loop
  vertex 70.5 5 1.5
  vertex 65.5 0 1.5
  vertex 70.4240387651 4.13175911167 1.5
 endloop
endfacet
facet normal 0 0 1
 outer loop
  vertex 69.5 20 1.5
  vertex 65.5 0 1.5
  vertex 70.5 5 1.5
 endloop
endfacet
facet normal 0 0 1
 outer loop
  vertex 69.5 20 1.5
  vertex 70.5 5 1.5
  vertex 70.5 19 1.5
 endloop
endfacet
facet normal 0 0 1
 outer loop
  vertex 70.4396926208 19.3420201433 1.5
  vertex 70.5 19 1.5
  vertex 70.484807753 19.1736481777 1.5
 endloop
endfacet
facet normal 0 0 1
 outer loop
  vertex 70.3660254038 19.5 1.5
  vertex 70.5 19 1.5
  vertex 70.4396926208 19.3420201433 1.5
 endloop
endfacet
facet normal 0 0 1
 outer loop
  vertex 70.2660444431 19.6427876097 1.5
  vertex 70.5 19 1.5
  vertex 70.3660254038 19.5 1.5
 endloop
endfacet
facet normal 0 0 1
 outer loop
  vertex 70.1427876097 19.7660444431 1.5
  vertex 70.5 19 1.5
  vertex 70.2660444431 19.6427876097 1.5
 endloop
endfacet
facet normal 0 0 1
 outer loop
  vertex 70 19.8660254038 1.5
  vertex 70.5 19 1.5
  vertex 70.1427876097 19.7660444431 1.5
 endloop
endfacet
facet normal 0 0 1
 outer loop
  vertex 69.8420201433 19.9396926208 1.5
  vertex 70.5 19 1.5
  vertex 70 19.8660254038 1.5
 endloop
endfacet
facet normal 0 0 1
 outer loop
  vertex 69.6736481777 19.984807753 1.5
  vertex 70.5 19 1.5
  vertex 69.8420201433 19.9396926208 1.5
 endloop
endfacet
facet normal 0 0 1
 outer loop
  vertex 69.5 20 1.5
  vertex 70.5 19 1.5
  vertex 69.6736481777 19.984807753 1.5
 endloop
endfacet
facet normal 0 0 1
 outer loop
  vertex -6.12323399574e-16 20 1.5
  vertex 9.01519224699 13.3263518223 1.5
  vertex 9 13.5 1.5
 endloop
endfacet
facet normal 0 0 1
 outer loop
  vertex 22.5293779191 20 1.5
  vertex 21.961628413 20.046355476 1.5
  vertex 13.984807753 13.3263518223 1.5
 endloop
endfacet
facet normal 0 0 1
 outer loop
  vertex 21.961628413 20.046355476 1.5
  vertex 21.4089179347 20.184194001 1.5
  vertex 14 13.5 1.5
 endloop
endfacet
facet normal 0 0 1
 outer loop
  vertex 5.63755745954 20.4414388728 1.5
  vertex -6.12323399574e-16 20 1.5
  vertex 9 13.5 1.5
 endloop
endfacet
facet normal 0 0 1
 outer loop
  vertex 14 16.5 1.5
  vertex 20.8858871454 20.4098643919 1.5
  vertex 20.4063905259 20.717388901 1.5
 endloop
endfacet
facet normal 0 0 1
 outer loop
  vertex 4.36523984882 21.6544021892 1.5
  vertex 0.139026257175 21.6406351559 1.5
  vertex -6.12323399574e-16 20 1.5
 endloop
endfacet
facet normal 0 0 1
 outer loop
  vertex 6.74961662721 20.0499964762 1.5
  vertex 9.06030737921 16.8420201433 1.5
  vertex 7.33908730975 20 1.5
 endloop
endfacet
facet normal 0 0 1
 outer loop
  vertex 6.17698677721 20.1985575346 1.5
  vertex 9 16.5 1.5
  vertex 6.74961662721 20.0499964762 1.5
 endloop
endfacet
facet normal 0 0 1
 outer loop
  vertex 3.92115688351 22.7465070662 1.5
  vertex 0.552140249175 23.2344823394 1.5
  vertex 0.139026257175 21.6406351559 1.5
 endloop
endfacet
facet normal 0 0 1
 outer loop
  vertex 5.63755745954 20.4414388728 1.5
  vertex 9 16.5 1.5
  vertex 6.17698677721 20.1985575346 1.5
 endloop
endfacet
facet normal 0 0 1
 outer loop
  vertex 5.14673985422 20.771701513 1.5
  vertex -6.12323399574e-16 20 1.5
  vertex 5.63755745954 20.4414388728 1.5
 endloop
endfacet
facet normal 0 0 1
 outer loop
  vertex 3.84307759297 23.3329190012 1.5
  vertex 1.22756070583 24.7360878874 1.5
  vertex 0.552140249175 23.2344823394 1.5
 endloop
endfacet
facet normal 0 0 1
 outer loop
  vertex 4.71855633308 21.1799100448 1.5
  vertex -6.12323399574e-16 20 1.5
  vertex 5.14673985422 20.771701513 1.5
 endloop
endfacet
facet normal 0 0 1
 outer loop
  vertex 4.36523984882 21.6544021892 1.5
  vertex -6.12323399574e-16 20 1.5
  vertex 4.71855633308 21.1799100448 1.5
 endloop
endfacet
facet normal 0 0 1
 outer loop
  vertex 3.98593306517 24.5031732712 1.5
  vertex 2.14602584701 26.1026287025 1.5
  vertex 1.22756070583 24.7360878874 1.5
 endloop
endfacet
facet normal 0 0 1
 outer loop
  vertex 4.09688444668 22.1816219834 1.5
  vertex 0.139026257175 21.6406351559 1.5
  vertex 4.36523984882 21.6544021892 1.5
 endloop
endfacet
facet normal 0 0 1
 outer loop
  vertex 4.5092422745 25.5596060488 1.5
  vertex 3.28134269406 27.2951334915 1.5
  vertex 2.14602584701 26.1026287025 1.5
 endloop
endfacet
facet normal 0 0 1
 outer loop
  vertex 3.92115688351 22.7465070662 1.5
  vertex 0.139026257175 21.6406351559 1.5
  vertex 4.09688444668 22.1816219834 1.5
 endloop
endfacet
facet normal 0 0 1
 outer loop
  vertex 3.84307759297 23.3329190012 1.5
  vertex 0.552140249175 23.2344823394 1.5
  vertex 3.92115688351 22.7465070662 1.5
 endloop
endfacet
facet normal 0 0 1
 outer loop
  vertex 5.35362980014 26.3823529412 1.5
  vertex 4.60113404659 28.2795941563 1.5
  vertex 3.28134269406 27.2951334915 1.5
 endloop
endfacet
facet normal 0 0 1
 outer loop
  vertex 3.86487725472 23.9241043427 1.5
  vertex 1.22756070583 24.7360878874 1.5
  vertex 3.84307759297 23.3329190012 1.5
 endloop
endfacet
facet normal 0 0 1
 outer loop
  vertex 3.98593306517 24.5031732712 1.5
  vertex 1.22756070583 24.7360878874 1.5
  vertex 3.86487725472 23.9241043427 1.5
 endloop
endfacet
facet normal 0 0 1
 outer loop
  vertex 6.51325756718 27.0417326294 1.5
  vertex 6.06776182214 29.0279356445 1.5
  vertex 4.60113404659 28.2795941563 1.5
 endloop
endfacet
facet normal 0 0 1
 outer loop
  vertex 4.20278653064 25.0535821262 1.5
  vertex 2.14602584701 26.1026287025 1.5
  vertex 3.98593306517 24.5031732712 1.5
 endloop
endfacet
facet normal 0 0 1
 outer loop
  vertex 7.76878280511 27.4924814599 1.5
  vertex 7.63940042679 29.5188165988 1.5
  vertex 6.06776182214 29.0279356445 1.5
 endloop
endfacet
facet normal 0 0 1
 outer loop
  vertex 4.5092422745 25.5596060488 1.5
  vertex 2.14602584701 26.1026287025 1.5
  vertex 4.20278653064 25.0535821262 1.5
 endloop
endfacet
facet normal 0 -0 1
 outer loop
  vertex 9.08300709687 27.7212447486 1.5
  vertex 9.27122954613 29.7382379747 1.5
  vertex 7.63940042679 29.5188165988 1.5
 endloop
endfacet
facet normal 0 0 1
 outer loop
  vertex 4.89654503543 26.0067882316 1.5
  vertex 3.28134269406 27.2951334915 1.5
  vertex 4.5092422745 25.5596060488 1.5
 endloop
endfacet
facet normal 0 -0 1
 outer loop
  vertex 10.4169929031 27.7212447486 1.5
  vertex 10.9167123402 29.6799422682 1.5
  vertex 9.27122954613 29.7382379747 1.5
 endloop
endfacet
facet normal 0 0 1
 outer loop
  vertex 5.35362980014 26.3823529412 1.5
  vertex 3.28134269406 27.2951334915 1.5
  vertex 4.89654503543 26.0067882316 1.5
 endloop
endfacet
facet normal 0 -0 1
 outer loop
  vertex 11.7312171949 27.4924814599 1.5
  vertex 12.5289225907 29.3455919681 1.5
  vertex 10.9167123402 29.6799422682 1.5
 endloop
endfacet
facet normal 0 0 1
 outer loop
  vertex 6.51325756718 27.0417326294 1.5
  vertex 4.60113404659 28.2795941563 1.5
  vertex 5.35362980014 26.3823529412 1.5
 endloop
endfacet
facet normal 0 -0 1
 outer loop
  vertex 12.9867424328 27.0417326294 1.5
  vertex 14.0618829526 28.7447221456 1.5
  vertex 12.5289225907 29.3455919681 1.5
 endloop
endfacet
facet normal 0 0 1
 outer loop
  vertex 7.76878280511 27.4924814599 1.5
  vertex 6.06776182214 29.0279356445 1.5
  vertex 6.51325756718 27.0417326294 1.5
 endloop
endfacet
facet normal 0 0 1
 outer loop
  vertex 9.08300709687 27.7212447486 1.5
  vertex 7.63940042679 29.5188165988 1.5
  vertex 7.76878280511 27.4924814599 1.5
 endloop
endfacet
facet normal 0 -0 1
 outer loop
  vertex 14.1463701999 26.3823529412 1.5
  vertex 15.4718761456 27.8944685302 1.5
  vertex 14.0618829526 28.7447221456 1.5
 endloop
endfacet
facet normal 0 0 1
 outer loop
  vertex 10.4169929031 27.7212447486 1.5
  vertex 9.27122954613 29.7382379747 1.5
  vertex 9.08300709687 27.7212447486 1.5
 endloop
endfacet
facet normal 0 0 1
 outer loop
  vertex 14.6034549646 26.0067882316 1.5
  vertex 16.7186916926 26.8190788303 1.5
  vertex 15.4718761456 27.8944685302 1.5
 endloop
endfacet
facet normal 0 0 1
 outer loop
  vertex 11.7312171949 27.4924814599 1.5
  vertex 10.9167123402 29.6799422682 1.5
  vertex 10.4169929031 27.7212447486 1.5
 endloop
endfacet
facet normal 0 0 1
 outer loop
  vertex 15.2972134694 25.0535821262 1.5
  vertex 17.7667726502 25.5492212314 1.5
  vertex 16.7186916926 26.8190788303 1.5
 endloop
endfacet
facet normal 0 0 1
 outer loop
  vertex 12.9867424328 27.0417326294 1.5
  vertex 12.5289225907 29.3455919681 1.5
  vertex 11.7312171949 27.4924814599 1.5
 endloop
endfacet
facet normal 0 0 1
 outer loop
  vertex 15.6351227453 23.9241043427 1.5
  vertex 18.586229629 24.121109795 1.5
  vertex 17.7667726502 25.5492212314 1.5
 endloop
endfacet
facet normal 0 0 1
 outer loop
  vertex 14.1463701999 26.3823529412 1.5
  vertex 14.0618829526 28.7447221456 1.5
  vertex 12.9867424328 27.0417326294 1.5
 endloop
endfacet
facet normal 0 -0 1
 outer loop
  vertex 14.6034549646 26.0067882316 1.5
  vertex 15.4718761456 27.8944685302 1.5
  vertex 14.1463701999 26.3823529412 1.5
 endloop
endfacet
facet normal -0 0 1
 outer loop
  vertex 15.5788431165 22.7465070662 1.5
  vertex 19.1536931858 22.5754716981 1.5
  vertex 18.586229629 24.121109795 1.5
 endloop
endfacet
facet normal 0 -0 1
 outer loop
  vertex 14.9907577255 25.5596060488 1.5
  vertex 16.7186916926 26.8190788303 1.5
  vertex 14.6034549646 26.0067882316 1.5
 endloop
endfacet
facet normal 0 -0 1
 outer loop
  vertex 15.2972134694 25.0535821262 1.5
  vertex 16.7186916926 26.8190788303 1.5
  vertex 14.9907577255 25.5596060488 1.5
 endloop
endfacet
facet normal -0 0 1
 outer loop
  vertex 15.4031155533 22.1816219834 1.5
  vertex 19.3483737456 22.0401327294 1.5
  vertex 19.1536931858 22.5754716981 1.5
 endloop
endfacet
facet normal 0 -0 1
 outer loop
  vertex 15.5140669348 24.5031732712 1.5
  vertex 17.7667726502 25.5492212314 1.5
  vertex 15.2972134694 25.0535821262 1.5
 endloop
endfacet
facet normal 0 -0 1
 outer loop
  vertex 15.6351227453 23.9241043427 1.5
  vertex 17.7667726502 25.5492212314 1.5
  vertex 15.5140669348 24.5031732712 1.5
 endloop
endfacet
facet normal -0 0 1
 outer loop
  vertex 15.1347601512 21.6544021892 1.5
  vertex 19.6273154269 21.5434639561 1.5
  vertex 19.3483737456 22.0401327294 1.5
 endloop
endfacet
facet normal 0 -0 1
 outer loop
  vertex 15.656922407 23.3329190012 1.5
  vertex 18.586229629 24.121109795 1.5
  vertex 15.6351227453 23.9241043427 1.5
 endloop
endfacet
facet normal -0 0 1
 outer loop
  vertex 14.7814436669 21.1799100448 1.5
  vertex 19.9831293871 21.0986215598 1.5
  vertex 19.6273154269 21.5434639561 1.5
 endloop
endfacet
facet normal 0 0 1
 outer loop
  vertex 15.5788431165 22.7465070662 1.5
  vertex 18.586229629 24.121109795 1.5
  vertex 15.656922407 23.3329190012 1.5
 endloop
endfacet
facet normal 0 0 1
 outer loop
  vertex 15.4031155533 22.1816219834 1.5
  vertex 19.1536931858 22.5754716981 1.5
  vertex 15.5788431165 22.7465070662 1.5
 endloop
endfacet
facet normal 0 0 1
 outer loop
  vertex 13.9396926208 16.8420201433 1.5
  vertex 20.4063905259 20.717388901 1.5
  vertex 19.9831293871 21.0986215598 1.5
 endloop
endfacet
facet normal 0 0 1
 outer loop
  vertex 15.1347601512 21.6544021892 1.5
  vertex 19.3483737456 22.0401327294 1.5
  vertex 15.4031155533 22.1816219834 1.5
 endloop
endfacet
facet normal 0 0 1
 outer loop
  vertex 14.7814436669 21.1799100448 1.5
  vertex 19.6273154269 21.5434639561 1.5
  vertex 15.1347601512 21.6544021892 1.5
 endloop
endfacet
facet normal 0 0 1
 outer loop
  vertex 13.9396926208 16.8420201433 1.5
  vertex 19.9831293871 21.0986215598 1.5
  vertex 14.7814436669 21.1799100448 1.5
 endloop
endfacet
facet normal 0 0 1
 outer loop
  vertex 13.8660254038 17 1.5
  vertex 14.7814436669 21.1799100448 1.5
  vertex 14.3532601458 20.771701513 1.5
 endloop
endfacet
facet normal 0 0 1
 outer loop
  vertex 14 16.5 1.5
  vertex 21.4089179347 20.184194001 1.5
  vertex 20.8858871454 20.4098643919 1.5
 endloop
endfacet
facet normal 0 -0 1
 outer loop
  vertex 13.5 17.3660254038 1.5
  vertex 13.8624425405 20.4414388728 1.5
  vertex 13.3230132228 20.1985575346 1.5
 endloop
endfacet
facet normal 0 0 1
 outer loop
  vertex 9 16.5 1.5
  vertex 5.63755745954 20.4414388728 1.5
  vertex 9 13.5 1.5
 endloop
endfacet
facet normal 0 0 1
 outer loop
  vertex 9.01519224699 16.6736481777 1.5
  vertex 6.74961662721 20.0499964762 1.5
  vertex 9 16.5 1.5
 endloop
endfacet
facet normal 0 0 1
 outer loop
  vertex 9.06030737921 16.8420201433 1.5
  vertex 6.74961662721 20.0499964762 1.5
  vertex 9.01519224699 16.6736481777 1.5
 endloop
endfacet
facet normal 0 0 1
 outer loop
  vertex 9.13397459622 17 1.5
  vertex 7.33908730975 20 1.5
  vertex 9.06030737921 16.8420201433 1.5
 endloop
endfacet
facet normal 0 0 1
 outer loop
  vertex 13 17.5 1.5
  vertex 12.7503833728 20.0499964762 1.5
  vertex 12.1609126902 20 1.5
 endloop
endfacet
facet normal 0 0 1
 outer loop
  vertex 9.23395555688 17.1427876097 1.5
  vertex 7.33908730975 20 1.5
  vertex 9.13397459622 17 1.5
 endloop
endfacet
facet normal 0 -0 1
 outer loop
  vertex 10 17.5 1.5
  vertex 12.1609126902 20 1.5
  vertex 7.33908730975 20 1.5
 endloop
endfacet
facet normal 0 0 1
 outer loop
  vertex 9.35721239031 17.2660444431 1.5
  vertex 7.33908730975 20 1.5
  vertex 9.23395555688 17.1427876097 1.5
 endloop
endfacet
facet normal 0 0 1
 outer loop
  vertex 9.5 17.3660254038 1.5
  vertex 7.33908730975 20 1.5
  vertex 9.35721239031 17.2660444431 1.5
 endloop
endfacet
facet normal 0 -0 1
 outer loop
  vertex 13.1736481777 17.484807753 1.5
  vertex 13.3230132228 20.1985575346 1.5
  vertex 12.7503833728 20.0499964762 1.5
 endloop
endfacet
facet normal 0 0 1
 outer loop
  vertex 9.65797985667 17.4396926208 1.5
  vertex 7.33908730975 20 1.5
  vertex 9.5 17.3660254038 1.5
 endloop
endfacet
facet normal 0 0 1
 outer loop
  vertex 9.82635182233 17.484807753 1.5
  vertex 7.33908730975 20 1.5
  vertex 9.65797985667 17.4396926208 1.5
 endloop
endfacet
facet normal 0 0 1
 outer loop
  vertex 10 17.5 1.5
  vertex 13 17.5 1.5
  vertex 12.1609126902 20 1.5
 endloop
endfacet
facet normal 0 0 1
 outer loop
  vertex 10 17.5 1.5
  vertex 7.33908730975 20 1.5
  vertex 9.82635182233 17.484807753 1.5
 endloop
endfacet
facet normal 0 0 1
 outer loop
  vertex 13.7660444431 17.1427876097 1.5
  vertex 14.3532601458 20.771701513 1.5
  vertex 13.8624425405 20.4414388728 1.5
 endloop
endfacet
facet normal 0 0 1
 outer loop
  vertex 13.1736481777 17.484807753 1.5
  vertex 12.7503833728 20.0499964762 1.5
  vertex 13 17.5 1.5
 endloop
endfacet
facet normal 0 0 1
 outer loop
  vertex 13.3420201433 17.4396926208 1.5
  vertex 13.3230132228 20.1985575346 1.5
  vertex 13.1736481777 17.484807753 1.5
 endloop
endfacet
facet normal 0 0 1
 outer loop
  vertex 13.5 17.3660254038 1.5
  vertex 13.3230132228 20.1985575346 1.5
  vertex 13.3420201433 17.4396926208 1.5
 endloop
endfacet
facet normal 0 -0 1
 outer loop
  vertex 13.6427876097 17.2660444431 1.5
  vertex 13.8624425405 20.4414388728 1.5
  vertex 13.5 17.3660254038 1.5
 endloop
endfacet
facet normal 0 -0 1
 outer loop
  vertex 13.7660444431 17.1427876097 1.5
  vertex 13.8624425405 20.4414388728 1.5
  vertex 13.6427876097 17.2660444431 1.5
 endloop
endfacet
facet normal 0 -0 1
 outer loop
  vertex 13.8660254038 17 1.5
  vertex 14.3532601458 20.771701513 1.5
  vertex 13.7660444431 17.1427876097 1.5
 endloop
endfacet
facet normal 0 -0 1
 outer loop
  vertex 13.9396926208 16.8420201433 1.5
  vertex 14.7814436669 21.1799100448 1.5
  vertex 13.8660254038 17 1.5
 endloop
endfacet
facet normal 0 -0 1
 outer loop
  vertex 13.984807753 16.6736481777 1.5
  vertex 20.4063905259 20.717388901 1.5
  vertex 13.9396926208 16.8420201433 1.5
 endloop
endfacet
facet normal 0 -0 1
 outer loop
  vertex 14 16.5 1.5
  vertex 20.4063905259 20.717388901 1.5
  vertex 13.984807753 16.6736481777 1.5
 endloop
endfacet
facet normal -0 0 1
 outer loop
  vertex 13.7660444431 12.8572123903 1.5
  vertex 65.5 0 1.5
  vertex 22.5293779191 20 1.5
 endloop
endfacet
facet normal 0 0 1
 outer loop
  vertex 14 13.5 1.5
  vertex 21.4089179347 20.184194001 1.5
  vertex 14 16.5 1.5
 endloop
endfacet
facet normal 0 0 1
 outer loop
  vertex 13.984807753 13.3263518223 1.5
  vertex 21.961628413 20.046355476 1.5
  vertex 14 13.5 1.5
 endloop
endfacet
facet normal 0 0 1
 outer loop
  vertex 13.9396926208 13.1579798567 1.5
  vertex 22.5293779191 20 1.5
  vertex 13.984807753 13.3263518223 1.5
 endloop
endfacet
facet normal 0 0 1
 outer loop
  vertex 13.6427876097 12.7339555569 1.5
  vertex 5 0 1.5
  vertex 65.5 0 1.5
 endloop
endfacet
facet normal 0 0 1
 outer loop
  vertex 13.8660254038 13 1.5
  vertex 22.5293779191 20 1.5
  vertex 13.9396926208 13.1579798567 1.5
 endloop
endfacet
facet normal 0 0 1
 outer loop
  vertex 13.7660444431 12.8572123903 1.5
  vertex 22.5293779191 20 1.5
  vertex 13.8660254038 13 1.5
 endloop
endfacet
facet normal -0 0 1
 outer loop
  vertex 13.6427876097 12.7339555569 1.5
  vertex 65.5 0 1.5
  vertex 13.7660444431 12.8572123903 1.5
 endloop
endfacet
facet normal -0 0 1
 outer loop
  vertex 13.5 12.6339745962 1.5
  vertex 5 0 1.5
  vertex 13.6427876097 12.7339555569 1.5
 endloop
endfacet
facet normal -0 0 1
 outer loop
  vertex 13.3420201433 12.5603073792 1.5
  vertex 5 0 1.5
  vertex 13.5 12.6339745962 1.5
 endloop
endfacet
facet normal -0 0 1
 outer loop
  vertex 13.1736481777 12.515192247 1.5
  vertex 5 0 1.5
  vertex 13.3420201433 12.5603073792 1.5
 endloop
endfacet
facet normal -0 0 1
 outer loop
  vertex 13 12.5 1.5
  vertex 5 0 1.5
  vertex 13.1736481777 12.515192247 1.5
 endloop
endfacet
facet normal 0 0 1
 outer loop
  vertex 9.5 12.6339745962 1.5
  vertex 3.2227547346e-17 5 1.5
  vertex 5 0 1.5
 endloop
endfacet
facet normal -0 0 1
 outer loop
  vertex 10 12.5 1.5
  vertex 5 0 1.5
  vertex 13 12.5 1.5
 endloop
endfacet
facet normal 0 0 1
 outer loop
  vertex 9.82635182233 12.515192247 1.5
  vertex 5 0 1.5
  vertex 10 12.5 1.5
 endloop
endfacet
facet normal 0 0 1
 outer loop
  vertex 9.65797985667 12.5603073792 1.5
  vertex 5 0 1.5
  vertex 9.82635182233 12.515192247 1.5
 endloop
endfacet
facet normal 0 0 1
 outer loop
  vertex 9.5 12.6339745962 1.5
  vertex 5 0 1.5
  vertex 9.65797985667 12.5603073792 1.5
 endloop
endfacet
facet normal 0 0 1
 outer loop
  vertex 9.35721239031 12.7339555569 1.5
  vertex 3.2227547346e-17 5 1.5
  vertex 9.5 12.6339745962 1.5
 endloop
endfacet
facet normal 0 0 1
 outer loop
  vertex 9.23395555688 12.8572123903 1.5
  vertex 3.2227547346e-17 5 1.5
  vertex 9.35721239031 12.7339555569 1.5
 endloop
endfacet
facet normal 0 0 1
 outer loop
  vertex 9.13397459622 13 1.5
  vertex 3.2227547346e-17 5 1.5
  vertex 9.23395555688 12.8572123903 1.5
 endloop
endfacet
facet normal 0 0 1
 outer loop
  vertex 9.06030737921 13.1579798567 1.5
  vertex 3.2227547346e-17 5 1.5
  vertex 9.13397459622 13 1.5
 endloop
endfacet
facet normal 0 0 1
 outer loop
  vertex 9.01519224699 13.3263518223 1.5
  vertex -6.12323399574e-16 20 1.5
  vertex 3.2227547346e-17 5 1.5
 endloop
endfacet
facet normal 0 0 1
 outer loop
  vertex 9.01519224699 13.3263518223 1.5
  vertex 3.2227547346e-17 5 1.5
  vertex 9.06030737921 13.1579798567 1.5
 endloop
endfacet
facet normal 0 0 -1
 outer loop
  vertex 0.30153689607 3.28989928337 0
  vertex 0.075961234939 4.13175911167 0
  vertex 3.2227547346e-17 5 0
 endloop
endfacet
facet normal 0 0 -1
 outer loop
  vertex 0.669872981078 2.5 0
  vertex 0.30153689607 3.28989928337 0
  vertex 3.2227547346e-17 5 0
 endloop
endfacet
facet normal 0 0 -1
 outer loop
  vertex 1.16977778441 1.78606195157 0
  vertex 0.669872981078 2.5 0
  vertex 3.2227547346e-17 5 0
 endloop
endfacet
facet normal 0 0 -1
 outer loop
  vertex 1.78606195157 1.16977778441 0
  vertex 1.16977778441 1.78606195157 0
  vertex 3.2227547346e-17 5 0
 endloop
endfacet
facet normal 0 0 -1
 outer loop
  vertex 2.5 0.669872981078 0
  vertex 1.78606195157 1.16977778441 0
  vertex 3.2227547346e-17 5 0
 endloop
endfacet
facet normal 0 0 -1
 outer loop
  vertex 3.28989928337 0.30153689607 0
  vertex 2.5 0.669872981078 0
  vertex 3.2227547346e-17 5 0
 endloop
endfacet
facet normal 0 0 -1
 outer loop
  vertex 4.13175911167 0.075961234939 0
  vertex 3.28989928337 0.30153689607 0
  vertex 3.2227547346e-17 5 0
 endloop
endfacet
facet normal 0 0 -1
 outer loop
  vertex 5 0 0
  vertex 4.13175911167 0.075961234939 0
  vertex 3.2227547346e-17 5 0
 endloop
endfacet
facet normal 0 0 -1
 outer loop
  vertex 67.2101007166 0.30153689607 0
  vertex 66.3682408883 0.075961234939 0
  vertex 65.5 0 0
 endloop
endfacet
facet normal 0 0 -1
 outer loop
  vertex 68 0.669872981078 0
  vertex 67.2101007166 0.30153689607 0
  vertex 65.5 0 0
 endloop
endfacet
facet normal 0 0 -1
 outer loop
  vertex 68.7139380484 1.16977778441 0
  vertex 68 0.669872981078 0
  vertex 65.5 0 0
 endloop
endfacet
facet normal 0 0 -1
 outer loop
  vertex 69.3302222156 1.78606195157 0
  vertex 68.7139380484 1.16977778441 0
  vertex 65.5 0 0
 endloop
endfacet
facet normal 0 0 -1
 outer loop
  vertex 69.8301270189 2.5 0
  vertex 69.3302222156 1.78606195157 0
  vertex 65.5 0 0
 endloop
endfacet
facet normal 0 0 -1
 outer loop
  vertex 70.1984631039 3.28989928337 0
  vertex 69.8301270189 2.5 0
  vertex 65.5 0 0
 endloop
endfacet
facet normal 0 0 -1
 outer loop
  vertex 70.4240387651 4.13175911167 0
  vertex 70.1984631039 3.28989928337 0
  vertex 65.5 0 0
 endloop
endfacet
facet normal 0 0 -1
 outer loop
  vertex 70.5 5 0
  vertex 70.4240387651 4.13175911167 0
  vertex 65.5 0 0
 endloop
endfacet
facet normal 0 -0 -1
 outer loop
  vertex 69.5 20 0
  vertex 70.5 5 0
  vertex 65.5 0 0
 endloop
endfacet
facet normal 0 0 -1
 outer loop
  vertex 69.5 20 0
  vertex 70.5 19 0
  vertex 70.5 5 0
 endloop
endfacet
facet normal 0 0 -1
 outer loop
  vertex 70.4396926208 19.3420201433 0
  vertex 70.484807753 19.1736481777 0
  vertex 70.5 19 0
 endloop
endfacet
facet normal 0 0 -1
 outer loop
  vertex 70.3660254038 19.5 0
  vertex 70.4396926208 19.3420201433 0
  vertex 70.5 19 0
 endloop
endfacet
facet normal 0 0 -1
 outer loop
  vertex 70.2660444431 19.6427876097 0
  vertex 70.3660254038 19.5 0
  vertex 70.5 19 0
 endloop
endfacet
facet normal 0 0 -1
 outer loop
  vertex 70.1427876097 19.7660444431 0
  vertex 70.2660444431 19.6427876097 0
  vertex 70.5 19 0
 endloop
endfacet
facet normal 0 0 -1
 outer loop
  vertex 70 19.8660254038 0
  vertex 70.1427876097 19.7660444431 0
  vertex 70.5 19 0
 endloop
endfacet
facet normal 0 0 -1
 outer loop
  vertex 69.8420201433 19.9396926208 0
  vertex 70 19.8660254038 0
  vertex 70.5 19 0
 endloop
endfacet
facet normal 0 0 -1
 outer loop
  vertex 69.6736481777 19.984807753 0
  vertex 69.8420201433 19.9396926208 0
  vertex 70.5 19 0
 endloop
endfacet
facet normal 0 0 -1
 outer loop
  vertex 69.5 20 0
  vertex 69.6736481777 19.984807753 0
  vertex 70.5 19 0
 endloop
endfacet
facet normal 0 0 -1
 outer loop
  vertex 22.5293779191 20 0
  vertex 69.5 20 0
  vertex 65.5 0 0
 endloop
endfacet
facet normal 0 0 -1
 outer loop
  vertex 14 13.5 0
  vertex 21.4089179347 20.184194001 0
  vertex 21.961628413 20.046355476 0
 endloop
endfacet
facet normal 0 0 -1
 outer loop
  vertex 14 16.5 0
  vertex 20.8858871454 20.4098643919 0
  vertex 21.4089179347 20.184194001 0
 endloop
endfacet
facet normal 0 0 -1
 outer loop
  vertex 14.9907577255 25.5596060488 0
  vertex 14.6034549646 26.0067882316 0
  vertex 16.7186916926 26.8190788303 0
 endloop
endfacet
facet normal 0 0 -1
 outer loop
  vertex 15.5788431165 22.7465070662 0
  vertex 18.586229629 24.121109795 0
  vertex 19.1536931858 22.5754716981 0
 endloop
endfacet
facet normal 0 0 -1
 outer loop
  vertex 15.6351227453 23.9241043427 0
  vertex 17.7667726502 25.5492212314 0
  vertex 18.586229629 24.121109795 0
 endloop
endfacet
facet normal 0 0 -1
 outer loop
  vertex 15.2972134694 25.0535821262 0
  vertex 16.7186916926 26.8190788303 0
  vertex 17.7667726502 25.5492212314 0
 endloop
endfacet
facet normal 0 0 -1
 outer loop
  vertex 14.6034549646 26.0067882316 0
  vertex 15.4718761456 27.8944685302 0
  vertex 16.7186916926 26.8190788303 0
 endloop
endfacet
facet normal 0 0 -1
 outer loop
  vertex 14.1463701999 26.3823529412 0
  vertex 14.0618829526 28.7447221456 0
  vertex 15.4718761456 27.8944685302 0
 endloop
endfacet
facet normal 0 0 -1
 outer loop
  vertex 12.9867424328 27.0417326294 0
  vertex 14.0618829526 28.7447221456 0
  vertex 14.1463701999 26.3823529412 0
 endloop
endfacet
facet normal 0 0 -1
 outer loop
  vertex 15.1347601512 21.6544021892 0
  vertex 19.3483737456 22.0401327294 0
  vertex 19.6273154269 21.5434639561 0
 endloop
endfacet
facet normal 0 0 -1
 outer loop
  vertex 15.4031155533 22.1816219834 0
  vertex 19.1536931858 22.5754716981 0
  vertex 19.3483737456 22.0401327294 0
 endloop
endfacet
facet normal 0 0 -1
 outer loop
  vertex 14.6034549646 26.0067882316 0
  vertex 14.1463701999 26.3823529412 0
  vertex 15.4718761456 27.8944685302 0
 endloop
endfacet
facet normal 0 0 -1
 outer loop
  vertex 15.2972134694 25.0535821262 0
  vertex 14.9907577255 25.5596060488 0
  vertex 16.7186916926 26.8190788303 0
 endloop
endfacet
facet normal 0 0 -1
 outer loop
  vertex 14.7814436669 21.1799100448 0
  vertex 19.6273154269 21.5434639561 0
  vertex 19.9831293871 21.0986215598 0
 endloop
endfacet
facet normal 0 0 -1
 outer loop
  vertex 15.5140669348 24.5031732712 0
  vertex 15.2972134694 25.0535821262 0
  vertex 17.7667726502 25.5492212314 0
 endloop
endfacet
facet normal 0 0 -1
 outer loop
  vertex 15.6351227453 23.9241043427 0
  vertex 15.5140669348 24.5031732712 0
  vertex 17.7667726502 25.5492212314 0
 endloop
endfacet
facet normal 0 0 -1
 outer loop
  vertex 13.9396926208 16.8420201433 0
  vertex 19.9831293871 21.0986215598 0
  vertex 20.4063905259 20.717388901 0
 endloop
endfacet
facet normal 0 0 -1
 outer loop
  vertex 15.656922407 23.3329190012 0
  vertex 15.6351227453 23.9241043427 0
  vertex 18.586229629 24.121109795 0
 endloop
endfacet
facet normal 0 0 -1
 outer loop
  vertex 15.5788431165 22.7465070662 0
  vertex 15.656922407 23.3329190012 0
  vertex 18.586229629 24.121109795 0
 endloop
endfacet
facet normal 0 0 -1
 outer loop
  vertex 14 16.5 0
  vertex 20.4063905259 20.717388901 0
  vertex 20.8858871454 20.4098643919 0
 endloop
endfacet
facet normal 0 0 -1
 outer loop
  vertex 15.4031155533 22.1816219834 0
  vertex 15.5788431165 22.7465070662 0
  vertex 19.1536931858 22.5754716981 0
 endloop
endfacet
facet normal 0 0 -1
 outer loop
  vertex 15.1347601512 21.6544021892 0
  vertex 15.4031155533 22.1816219834 0
  vertex 19.3483737456 22.0401327294 0
 endloop
endfacet
facet normal 0 0 -1
 outer loop
  vertex 14.7814436669 21.1799100448 0
  vertex 15.1347601512 21.6544021892 0
  vertex 19.6273154269 21.5434639561 0
 endloop
endfacet
facet normal 0 0 -1
 outer loop
  vertex 13.9396926208 16.8420201433 0
  vertex 14.7814436669 21.1799100448 0
  vertex 19.9831293871 21.0986215598 0
 endloop
endfacet
facet normal 0 0 -1
 outer loop
  vertex 13.8660254038 17 0
  vertex 14.3532601458 20.771701513 0
  vertex 14.7814436669 21.1799100448 0
 endloop
endfacet
facet normal 0 0 -1
 outer loop
  vertex 13.7660444431 17.1427876097 0
  vertex 13.8624425405 20.4414388728 0
  vertex 14.3532601458 20.771701513 0
 endloop
endfacet
facet normal 0 0 -1
 outer loop
  vertex 10 17.5 0
  vertex 12.1609126902 20 0
  vertex 13 17.5 0
 endloop
endfacet
facet normal 0 0 -1
 outer loop
  vertex 5.63755745954 20.4414388728 0
  vertex 9 16.5 0
  vertex 9 13.5 0
 endloop
endfacet
facet normal 0 0 -1
 outer loop
  vertex 4.36523984882 21.6544021892 0
  vertex -6.12323399574e-16 20 0
  vertex 0.139026257175 21.6406351559 0
 endloop
endfacet
facet normal 0 0 -1
 outer loop
  vertex 6.74961662721 20.0499964762 0
  vertex 7.33908730975 20 0
  vertex 9.06030737921 16.8420201433 0
 endloop
endfacet
facet normal 0 0 -1
 outer loop
  vertex 6.17698677721 20.1985575346 0
  vertex 6.74961662721 20.0499964762 0
  vertex 9 16.5 0
 endloop
endfacet
facet normal -0 0 -1
 outer loop
  vertex 3.92115688351 22.7465070662 0
  vertex 0.139026257175 21.6406351559 0
  vertex 0.552140249175 23.2344823394 0
 endloop
endfacet
facet normal 0 0 -1
 outer loop
  vertex 5.63755745954 20.4414388728 0
  vertex 6.17698677721 20.1985575346 0
  vertex 9 16.5 0
 endloop
endfacet
facet normal 0 -0 -1
 outer loop
  vertex 5.14673985422 20.771701513 0
  vertex 5.63755745954 20.4414388728 0
  vertex -6.12323399574e-16 20 0
 endloop
endfacet
facet normal -0 0 -1
 outer loop
  vertex 3.84307759297 23.3329190012 0
  vertex 0.552140249175 23.2344823394 0
  vertex 1.22756070583 24.7360878874 0
 endloop
endfacet
facet normal 0 -0 -1
 outer loop
  vertex 4.71855633308 21.1799100448 0
  vertex 5.14673985422 20.771701513 0
  vertex -6.12323399574e-16 20 0
 endloop
endfacet
facet normal 0 -0 -1
 outer loop
  vertex 4.36523984882 21.6544021892 0
  vertex 4.71855633308 21.1799100448 0
  vertex -6.12323399574e-16 20 0
 endloop
endfacet
facet normal 0 0 -1
 outer loop
  vertex 3.98593306517 24.5031732712 0
  vertex 1.22756070583 24.7360878874 0
  vertex 2.14602584701 26.1026287025 0
 endloop
endfacet
facet normal 0 -0 -1
 outer loop
  vertex 4.09688444668 22.1816219834 0
  vertex 4.36523984882 21.6544021892 0
  vertex 0.139026257175 21.6406351559 0
 endloop
endfacet
facet normal 0 0 -1
 outer loop
  vertex 4.5092422745 25.5596060488 0
  vertex 2.14602584701 26.1026287025 0
  vertex 3.28134269406 27.2951334915 0
 endloop
endfacet
facet normal 0 -0 -1
 outer loop
  vertex 3.92115688351 22.7465070662 0
  vertex 4.09688444668 22.1816219834 0
  vertex 0.139026257175 21.6406351559 0
 endloop
endfacet
facet normal 0 -0 -1
 outer loop
  vertex 3.84307759297 23.3329190012 0
  vertex 3.92115688351 22.7465070662 0
  vertex 0.552140249175 23.2344823394 0
 endloop
endfacet
facet normal 0 0 -1
 outer loop
  vertex 5.35362980014 26.3823529412 0
  vertex 3.28134269406 27.2951334915 0
  vertex 4.60113404659 28.2795941563 0
 endloop
endfacet
facet normal -0 0 -1
 outer loop
  vertex 3.86487725472 23.9241043427 0
  vertex 3.84307759297 23.3329190012 0
  vertex 1.22756070583 24.7360878874 0
 endloop
endfacet
facet normal -0 0 -1
 outer loop
  vertex 3.98593306517 24.5031732712 0
  vertex 3.86487725472 23.9241043427 0
  vertex 1.22756070583 24.7360878874 0
 endloop
endfacet
facet normal 0 0 -1
 outer loop
  vertex 6.51325756718 27.0417326294 0
  vertex 4.60113404659 28.2795941563 0
  vertex 6.06776182214 29.0279356445 0
 endloop
endfacet
facet normal -0 0 -1
 outer loop
  vertex 4.20278653064 25.0535821262 0
  vertex 3.98593306517 24.5031732712 0
  vertex 2.14602584701 26.1026287025 0
 endloop
endfacet
facet normal 0 0 -1
 outer loop
  vertex 7.76878280511 27.4924814599 0
  vertex 6.06776182214 29.0279356445 0
  vertex 7.63940042679 29.5188165988 0
 endloop
endfacet
facet normal -0 0 -1
 outer loop
  vertex 4.5092422745 25.5596060488 0
  vertex 4.20278653064 25.0535821262 0
  vertex 2.14602584701 26.1026287025 0
 endloop
endfacet
facet normal 0 0 -1
 outer loop
  vertex 9.08300709687 27.7212447486 0
  vertex 7.63940042679 29.5188165988 0
  vertex 9.27122954613 29.7382379747 0
 endloop
endfacet
facet normal -0 0 -1
 outer loop
  vertex 4.89654503543 26.0067882316 0
  vertex 4.5092422745 25.5596060488 0
  vertex 3.28134269406 27.2951334915 0
 endloop
endfacet
facet normal -0 0 -1
 outer loop
  vertex 5.35362980014 26.3823529412 0
  vertex 4.89654503543 26.0067882316 0
  vertex 3.28134269406 27.2951334915 0
 endloop
endfacet
facet normal 0 0 -1
 outer loop
  vertex 10.4169929031 27.7212447486 0
  vertex 9.27122954613 29.7382379747 0
  vertex 10.9167123402 29.6799422682 0
 endloop
endfacet
facet normal -0 0 -1
 outer loop
  vertex 6.51325756718 27.0417326294 0
  vertex 5.35362980014 26.3823529412 0
  vertex 4.60113404659 28.2795941563 0
 endloop
endfacet
facet normal -0 0 -1
 outer loop
  vertex 7.76878280511 27.4924814599 0
  vertex 6.51325756718 27.0417326294 0
  vertex 6.06776182214 29.0279356445 0
 endloop
endfacet
facet normal 0 0 -1
 outer loop
  vertex 11.7312171949 27.4924814599 0
  vertex 10.9167123402 29.6799422682 0
  vertex 12.5289225907 29.3455919681 0
 endloop
endfacet
facet normal -0 0 -1
 outer loop
  vertex 9.08300709687 27.7212447486 0
  vertex 7.76878280511 27.4924814599 0
  vertex 7.63940042679 29.5188165988 0
 endloop
endfacet
facet normal -0 0 -1
 outer loop
  vertex 10.4169929031 27.7212447486 0
  vertex 9.08300709687 27.7212447486 0
  vertex 9.27122954613 29.7382379747 0
 endloop
endfacet
facet normal 0 0 -1
 outer loop
  vertex 12.9867424328 27.0417326294 0
  vertex 12.5289225907 29.3455919681 0
  vertex 14.0618829526 28.7447221456 0
 endloop
endfacet
facet normal 0 0 -1
 outer loop
  vertex 11.7312171949 27.4924814599 0
  vertex 10.4169929031 27.7212447486 0
  vertex 10.9167123402 29.6799422682 0
 endloop
endfacet
facet normal 0 0 -1
 outer loop
  vertex 12.9867424328 27.0417326294 0
  vertex 11.7312171949 27.4924814599 0
  vertex 12.5289225907 29.3455919681 0
 endloop
endfacet
facet normal -0 0 -1
 outer loop
  vertex 9.01519224699 16.6736481777 0
  vertex 9 16.5 0
  vertex 6.74961662721 20.0499964762 0
 endloop
endfacet
facet normal -0 0 -1
 outer loop
  vertex 9.06030737921 16.8420201433 0
  vertex 9.01519224699 16.6736481777 0
  vertex 6.74961662721 20.0499964762 0
 endloop
endfacet
facet normal 0 0 -1
 outer loop
  vertex 13.3230132228 20.1985575346 0
  vertex 13.1736481777 17.484807753 0
  vertex 12.7503833728 20.0499964762 0
 endloop
endfacet
facet normal -0 0 -1
 outer loop
  vertex 9.13397459622 17 0
  vertex 9.06030737921 16.8420201433 0
  vertex 7.33908730975 20 0
 endloop
endfacet
facet normal 0 0 -1
 outer loop
  vertex 13 17.5 0
  vertex 12.1609126902 20 0
  vertex 12.7503833728 20.0499964762 0
 endloop
endfacet
facet normal -0 0 -1
 outer loop
  vertex 9.23395555688 17.1427876097 0
  vertex 9.13397459622 17 0
  vertex 7.33908730975 20 0
 endloop
endfacet
facet normal 0 0 -1
 outer loop
  vertex 10 17.5 0
  vertex 7.33908730975 20 0
  vertex 12.1609126902 20 0
 endloop
endfacet
facet normal -0 0 -1
 outer loop
  vertex 9.35721239031 17.2660444431 0
  vertex 9.23395555688 17.1427876097 0
  vertex 7.33908730975 20 0
 endloop
endfacet
facet normal -0 0 -1
 outer loop
  vertex 9.5 17.3660254038 0
  vertex 9.35721239031 17.2660444431 0
  vertex 7.33908730975 20 0
 endloop
endfacet
facet normal -0 0 -1
 outer loop
  vertex 9.65797985667 17.4396926208 0
  vertex 9.5 17.3660254038 0
  vertex 7.33908730975 20 0
 endloop
endfacet
facet normal 0 0 -1
 outer loop
  vertex 13.5 17.3660254038 0
  vertex 13.3230132228 20.1985575346 0
  vertex 13.8624425405 20.4414388728 0
 endloop
endfacet
facet normal -0 0 -1
 outer loop
  vertex 9.82635182233 17.484807753 0
  vertex 9.65797985667 17.4396926208 0
  vertex 7.33908730975 20 0
 endloop
endfacet
facet normal -0 0 -1
 outer loop
  vertex 10 17.5 0
  vertex 9.82635182233 17.484807753 0
  vertex 7.33908730975 20 0
 endloop
endfacet
facet normal 0 0 -1
 outer loop
  vertex 13.984807753 13.3263518223 0
  vertex 21.961628413 20.046355476 0
  vertex 22.5293779191 20 0
 endloop
endfacet
facet normal 0 0 -1
 outer loop
  vertex 13.1736481777 17.484807753 0
  vertex 13 17.5 0
  vertex 12.7503833728 20.0499964762 0
 endloop
endfacet
facet normal 0 0 -1
 outer loop
  vertex 13.3420201433 17.4396926208 0
  vertex 13.1736481777 17.484807753 0
  vertex 13.3230132228 20.1985575346 0
 endloop
endfacet
facet normal 0 0 -1
 outer loop
  vertex 13.5 17.3660254038 0
  vertex 13.3420201433 17.4396926208 0
  vertex 13.3230132228 20.1985575346 0
 endloop
endfacet
facet normal 0 0 -1
 outer loop
  vertex 13.6427876097 17.2660444431 0
  vertex 13.5 17.3660254038 0
  vertex 13.8624425405 20.4414388728 0
 endloop
endfacet
facet normal 0 0 -1
 outer loop
  vertex 13.7660444431 17.1427876097 0
  vertex 13.6427876097 17.2660444431 0
  vertex 13.8624425405 20.4414388728 0
 endloop
endfacet
facet normal 0 0 -1
 outer loop
  vertex 13.8660254038 17 0
  vertex 13.7660444431 17.1427876097 0
  vertex 14.3532601458 20.771701513 0
 endloop
endfacet
facet normal 0 0 -1
 outer loop
  vertex 13.9396926208 16.8420201433 0
  vertex 13.8660254038 17 0
  vertex 14.7814436669 21.1799100448 0
 endloop
endfacet
facet normal 0 0 -1
 outer loop
  vertex 13.984807753 16.6736481777 0
  vertex 13.9396926208 16.8420201433 0
  vertex 20.4063905259 20.717388901 0
 endloop
endfacet
facet normal 0 0 -1
 outer loop
  vertex 14 16.5 0
  vertex 13.984807753 16.6736481777 0
  vertex 20.4063905259 20.717388901 0
 endloop
endfacet
facet normal 0 0 -1
 outer loop
  vertex 13.7660444431 12.8572123903 0
  vertex 22.5293779191 20 0
  vertex 65.5 0 0
 endloop
endfacet
facet normal 0 0 -1
 outer loop
  vertex 14 13.5 0
  vertex 14 16.5 0
  vertex 21.4089179347 20.184194001 0
 endloop
endfacet
facet normal 0 0 -1
 outer loop
  vertex 13.984807753 13.3263518223 0
  vertex 14 13.5 0
  vertex 21.961628413 20.046355476 0
 endloop
endfacet
facet normal 0 0 -1
 outer loop
  vertex 13.9396926208 13.1579798567 0
  vertex 13.984807753 13.3263518223 0
  vertex 22.5293779191 20 0
 endloop
endfacet
facet normal 0 -0 -1
 outer loop
  vertex 13.6427876097 12.7339555569 0
  vertex 65.5 0 0
  vertex 5 0 0
 endloop
endfacet
facet normal 0 0 -1
 outer loop
  vertex 13.8660254038 13 0
  vertex 13.9396926208 13.1579798567 0
  vertex 22.5293779191 20 0
 endloop
endfacet
facet normal 0 0 -1
 outer loop
  vertex 13.7660444431 12.8572123903 0
  vertex 13.8660254038 13 0
  vertex 22.5293779191 20 0
 endloop
endfacet
facet normal 0 0 -1
 outer loop
  vertex 13.6427876097 12.7339555569 0
  vertex 13.7660444431 12.8572123903 0
  vertex 65.5 0 0
 endloop
endfacet
facet normal 0 0 -1
 outer loop
  vertex 9.5 12.6339745962 0
  vertex 5 0 0
  vertex 3.2227547346e-17 5 0
 endloop
endfacet
facet normal 0 -0 -1
 outer loop
  vertex 13.5 12.6339745962 0
  vertex 13.6427876097 12.7339555569 0
  vertex 5 0 0
 endloop
endfacet
facet normal 0 -0 -1
 outer loop
  vertex 13.3420201433 12.5603073792 0
  vertex 13.5 12.6339745962 0
  vertex 5 0 0
 endloop
endfacet
facet normal 0 -0 -1
 outer loop
  vertex 13.1736481777 12.515192247 0
  vertex 13.3420201433 12.5603073792 0
  vertex 5 0 0
 endloop
endfacet
facet normal 0 -0 -1
 outer loop
  vertex 13 12.5 0
  vertex 13.1736481777 12.515192247 0
  vertex 5 0 0
 endloop
endfacet
facet normal 0 -0 -1
 outer loop
  vertex 10 12.5 0
  vertex 13 12.5 0
  vertex 5 0 0
 endloop
endfacet
facet normal 0 -0 -1
 outer loop
  vertex 9.82635182233 12.515192247 0
  vertex 10 12.5 0
  vertex 5 0 0
 endloop
endfacet
facet normal 0 -0 -1
 outer loop
  vertex 9.65797985667 12.5603073792 0
  vertex 9.82635182233 12.515192247 0
  vertex 5 0 0
 endloop
endfacet
facet normal 0 -0 -1
 outer loop
  vertex 9.5 12.6339745962 0
  vertex 9.65797985667 12.5603073792 0
  vertex 5 0 0
 endloop
endfacet
facet normal -0 0 -1
 outer loop
  vertex 9.01519224699 13.3263518223 0
  vertex 3.2227547346e-17 5 0
  vertex -6.12323399574e-16 20 0
 endloop
endfacet
facet normal 0 -0 -1
 outer loop
  vertex 9.35721239031 12.7339555569 0
  vertex 9.5 12.6339745962 0
  vertex 3.2227547346e-17 5 0
 endloop
endfacet
facet normal 0 -0 -1
 outer loop
  vertex 9.23395555688 12.8572123903 0
  vertex 9.35721239031 12.7339555569 0
  vertex 3.2227547346e-17 5 0
 endloop
endfacet
facet normal 0 -0 -1
 outer loop
  vertex 9.13397459622 13 0
  vertex 9.23395555688 12.8572123903 0
  vertex 3.2227547346e-17 5 0
 endloop
endfacet
facet normal 0 -0 -1
 outer loop
  vertex 9.06030737921 13.1579798567 0
  vertex 9.13397459622 13 0
  vertex 3.2227547346e-17 5 0
 endloop
endfacet
facet normal 0 -0 -1
 outer loop
  vertex 9.01519224699 13.3263518223 0
  vertex 9.06030737921 13.1579798567 0
  vertex 3.2227547346e-17 5 0
 endloop
endfacet
facet normal 0 0 -1
 outer loop
  vertex 9 13.5 0
  vertex -6.12323399574e-16 20 0
  vertex 5.63755745954 20.4414388728 0
 endloop
endfacet
facet normal -0 -0 -1
 outer loop
  vertex 9 13.5 0
  vertex 9.01519224699 13.3263518223 0
  vertex -6.12323399574e-16 20 0
 endloop
endfacet
facet normal -0.0845124472418 0.996422423604 0
 outer loop
  vertex 12.7503833728 20.0499964762 0
  vertex 12.1609126902 20 0
  vertex 12.1609126902 20 1.5
 endloop
endfacet
facet normal -0.0845124472418 0.996422423604 1.00082842448e-16
 outer loop
  vertex 12.7503833728 20.0499964762 1.5
  vertex 12.7503833728 20.0499964762 0
  vertex 12.1609126902 20 1.5
 endloop
endfacet
facet normal -0.251122870551 0.967955217914 0
 outer loop
  vertex 13.3230132228 20.1985575346 1.5
  vertex 13.3230132228 20.1985575346 0
  vertex 12.7503833728 20.0499964762 0
 endloop
endfacet
facet normal -0.410558860367 0.911834097944 4.86199359727e-16
 outer loop
  vertex 13.8624425405 20.4414388728 1.5
  vertex 13.8624425405 20.4414388728 0
  vertex 13.3230132228 20.1985575346 0
 endloop
endfacet
facet normal -0.558265423738 0.829662411261 6.61119069105e-16
 outer loop
  vertex 14.3532601458 20.771701513 1.5
  vertex 14.3532601458 20.771701513 0
  vertex 13.8624425405 20.4414388728 0
 endloop
endfacet
facet normal -0.690022670563 0.723787754877 0
 outer loop
  vertex 14.7814436669 21.1799100448 1.5
  vertex 14.7814436669 21.1799100448 0
  vertex 14.3532601458 20.771701513 0
 endloop
endfacet
facet normal -0.802066373383 0.597234905785 -1.41453641283e-15
 outer loop
  vertex 15.1347601512 21.6544021892 1.5
  vertex 15.1347601512 21.6544021892 0
  vertex 14.7814436669 21.1799100448 0
 endloop
endfacet
facet normal -0.891195509162 0.453619404843 1.05538749196e-15
 outer loop
  vertex 15.4031155533 22.1816219834 1.5
  vertex 15.4031155533 22.1816219834 0
  vertex 15.1347601512 21.6544021892 0
 endloop
endfacet
facet normal -0.954863710632 0.297044262893 -7.03542143993e-16
 outer loop
  vertex 15.5788431165 22.7465070662 1.5
  vertex 15.5788431165 22.7465070662 0
  vertex 15.4031155533 22.1816219834 0
 endloop
endfacet
facet normal -0.991252014528 0.131982740136 -3.12597924165e-16
 outer loop
  vertex 15.656922407 23.3329190012 1.5
  vertex 15.656922407 23.3329190012 0
  vertex 15.5788431165 22.7465070662 0
 endloop
endfacet
facet normal -0.999320828296 -0.0368494522904 -0
 outer loop
  vertex 15.6351227453 23.9241043427 1.5
  vertex 15.6351227453 23.9241043427 0
  vertex 15.656922407 23.3329190012 0
 endloop
endfacet
facet normal -0.978839630647 -0.204628877424 4.84658541267e-16
 outer loop
  vertex 15.5140669348 24.5031732712 1.5
  vertex 15.5140669348 24.5031732712 0
  vertex 15.6351227453 23.9241043427 0
 endloop
endfacet
facet normal -0.930393557415 -0.366562175246 -2.33613669947e-16
 outer loop
  vertex 15.2972134694 25.0535821262 1.5
  vertex 15.2972134694 25.0535821262 0
  vertex 15.5140669348 24.5031732712 0
 endloop
endfacet
facet normal -0.85536668457 -0.518023006177 -2.13967306432e-16
 outer loop
  vertex 14.9907577255 25.5596060488 1.5
  vertex 14.9907577255 25.5596060488 0
  vertex 15.2972134694 25.0535821262 0
 endloop
endfacet
facet normal -0.755902485974 -0.654684222888 -8.95168367253e-16
 outer loop
  vertex 14.6034549646 26.0067882316 1.5
  vertex 14.6034549646 26.0067882316 0
  vertex 14.9907577255 25.5596060488 0
 endloop
endfacet
facet normal -0.634842595591 -0.772641494371 -0
 outer loop
  vertex 14.1463701999 26.3823529412 1.5
  vertex 14.1463701999 26.3823529412 0
  vertex 14.6034549646 26.0067882316 0
 endloop
endfacet
facet normal -0.634842595591 -0.772641494371 -7.51804657747e-16
 outer loop
  vertex 14.6034549646 26.0067882316 1.5
  vertex 14.1463701999 26.3823529412 1.5
  vertex 14.6034549646 26.0067882316 0
 endloop
endfacet
facet normal -0.755902485974 -0.654684222888 -6.55435362046e-16
 outer loop
  vertex 14.9907577255 25.5596060488 1.5
  vertex 14.6034549646 26.0067882316 1.5
  vertex 14.9907577255 25.5596060488 0
 endloop
endfacet
facet normal -0.85536668457 -0.518023006177 2.13967306432e-16
 outer loop
  vertex 15.2972134694 25.0535821262 1.5
  vertex 14.9907577255 25.5596060488 1.5
  vertex 15.2972134694 25.0535821262 0
 endloop
endfacet
facet normal -0.930393557415 -0.366562175246 8.68193636085e-16
 outer loop
  vertex 15.5140669348 24.5031732712 1.5
  vertex 15.2972134694 25.0535821262 1.5
  vertex 15.5140669348 24.5031732712 0
 endloop
endfacet
facet normal -0.978839630647 -0.204628877424 -0
 outer loop
  vertex 15.6351227453 23.9241043427 1.5
  vertex 15.5140669348 24.5031732712 1.5
  vertex 15.6351227453 23.9241043427 0
 endloop
endfacet
facet normal -0.999320828296 -0.0368494522904 8.72770354723e-17
 outer loop
  vertex 15.656922407 23.3329190012 1.5
  vertex 15.6351227453 23.9241043427 1.5
  vertex 15.656922407 23.3329190012 0
 endloop
endfacet
facet normal -0.991252014528 0.131982740136 -3.12597924165e-16
 outer loop
  vertex 15.5788431165 22.7465070662 1.5
  vertex 15.656922407 23.3329190012 1.5
  vertex 15.5788431165 22.7465070662 0
 endloop
endfacet
facet normal -0.954863710632 0.297044262893 1.13078578872e-15
 outer loop
  vertex 15.4031155533 22.1816219834 1.5
  vertex 15.5788431165 22.7465070662 1.5
  vertex 15.4031155533 22.1816219834 0
 endloop
endfacet
facet normal -0.891195509162 0.453619404843 -1.07438657637e-15
 outer loop
  vertex 15.1347601512 21.6544021892 1.5
  vertex 15.4031155533 22.1816219834 1.5
  vertex 15.1347601512 21.6544021892 0
 endloop
endfacet
facet normal -0.802066373383 0.597234905785 0
 outer loop
  vertex 14.7814436669 21.1799100448 1.5
  vertex 15.1347601512 21.6544021892 1.5
  vertex 14.7814436669 21.1799100448 0
 endloop
endfacet
facet normal -0.690022670563 0.723787754877 8.17150993463e-16
 outer loop
  vertex 14.3532601458 20.771701513 1.5
  vertex 14.7814436669 21.1799100448 1.5
  vertex 14.3532601458 20.771701513 0
 endloop
endfacet
facet normal -0.558265423738 0.829662411261 6.61119069105e-16
 outer loop
  vertex 13.8624425405 20.4414388728 1.5
  vertex 14.3532601458 20.771701513 1.5
  vertex 13.8624425405 20.4414388728 0
 endloop
endfacet
facet normal -0.410558860367 0.911834097944 0
 outer loop
  vertex 13.3230132228 20.1985575346 1.5
  vertex 13.8624425405 20.4414388728 1.5
  vertex 13.3230132228 20.1985575346 0
 endloop
endfacet
facet normal -0.251122870551 0.967955217914 2.97389219089e-16
 outer loop
  vertex 12.7503833728 20.0499964762 1.5
  vertex 13.3230132228 20.1985575346 1.5
  vertex 12.7503833728 20.0499964762 0
 endloop
endfacet
facet normal 0.0845124472418 0.996422423604 0
 outer loop
  vertex 6.74961662721 20.0499964762 1.5
  vertex 7.33908730975 20 1.5
  vertex 7.33908730975 20 0
 endloop
endfacet
facet normal 0.251122870551 0.967955217914 1.48694609545e-16
 outer loop
  vertex 6.74961662721 20.0499964762 0
  vertex 6.17698677721 20.1985575346 0
  vertex 6.74961662721 20.0499964762 1.5
 endloop
endfacet
facet normal 0.558265423738 0.829662411261 -3.30559534553e-16
 outer loop
  vertex 5.63755745954 20.4414388728 0
  vertex 5.14673985422 20.771701513 0
  vertex 5.63755745954 20.4414388728 1.5
 endloop
endfacet
facet normal 0.802066373383 0.597234905785 -0
 outer loop
  vertex 4.71855633308 21.1799100448 0
  vertex 4.36523984882 21.6544021892 0
  vertex 4.71855633308 21.1799100448 1.5
 endloop
endfacet
facet normal 0.954863710632 0.297044262893 -0
 outer loop
  vertex 4.09688444668 22.1816219834 0
  vertex 3.92115688351 22.7465070662 0
  vertex 4.09688444668 22.1816219834 1.5
 endloop
endfacet
facet normal 0.999320828296 -0.0368494522904 0
 outer loop
  vertex 3.84307759297 23.3329190012 0
  vertex 3.86487725472 23.9241043427 0
  vertex 3.84307759297 23.3329190012 1.5
 endloop
endfacet
facet normal 0.930393557415 -0.366562175246 2.75451826508e-16
 outer loop
  vertex 3.98593306517 24.5031732712 0
  vertex 4.20278653064 25.0535821262 0
  vertex 3.98593306517 24.5031732712 1.5
 endloop
endfacet
facet normal 0.755902485974 -0.654684222888 0
 outer loop
  vertex 4.5092422745 25.5596060488 0
  vertex 4.89654503543 26.0067882316 0
  vertex 4.5092422745 25.5596060488 1.5
 endloop
endfacet
facet normal 0.634842595591 -0.772641494371 3.75902328874e-16
 outer loop
  vertex 4.89654503543 26.0067882316 0
  vertex 5.35362980014 26.3823529412 0
  vertex 4.89654503543 26.0067882316 1.5
 endloop
endfacet
facet normal 0.991252014528 0.131982740136 -0
 outer loop
  vertex 3.84307759297 23.3329190012 0
  vertex 3.84307759297 23.3329190012 1.5
  vertex 3.92115688351 22.7465070662 1.5
 endloop
endfacet
facet normal 0.999320828296 -0.0368494522904 0
 outer loop
  vertex 3.86487725472 23.9241043427 0
  vertex 3.86487725472 23.9241043427 1.5
  vertex 3.84307759297 23.3329190012 1.5
 endloop
endfacet
facet normal 0.978839630647 -0.204628877424 2.89794745429e-16
 outer loop
  vertex 3.98593306517 24.5031732712 0
  vertex 3.98593306517 24.5031732712 1.5
  vertex 3.86487725472 23.9241043427 1.5
 endloop
endfacet
facet normal 0.930393557415 -0.366562175246 0
 outer loop
  vertex 4.20278653064 25.0535821262 0
  vertex 4.20278653064 25.0535821262 1.5
  vertex 3.98593306517 24.5031732712 1.5
 endloop
endfacet
facet normal 0.85536668457 -0.518023006177 0
 outer loop
  vertex 4.5092422745 25.5596060488 0
  vertex 4.5092422745 25.5596060488 1.5
  vertex 4.20278653064 25.0535821262 1.5
 endloop
endfacet
facet normal 0.755902485974 -0.654684222888 4.47584183627e-16
 outer loop
  vertex 4.89654503543 26.0067882316 0
  vertex 4.89654503543 26.0067882316 1.5
  vertex 4.5092422745 25.5596060488 1.5
 endloop
endfacet
facet normal 0.634842595591 -0.772641494371 0
 outer loop
  vertex 5.35362980014 26.3823529412 0
  vertex 5.35362980014 26.3823529412 1.5
  vertex 4.89654503543 26.0067882316 1.5
 endloop
endfacet
facet normal 0.954863710632 0.297044262893 7.03542143993e-16
 outer loop
  vertex 3.92115688351 22.7465070662 0
  vertex 3.92115688351 22.7465070662 1.5
  vertex 4.09688444668 22.1816219834 1.5
 endloop
endfacet
facet normal 0.85536668457 -0.518023006177 0
 outer loop
  vertex 4.20278653064 25.0535821262 0
  vertex 4.5092422745 25.5596060488 0
  vertex 4.20278653064 25.0535821262 1.5
 endloop
endfacet
facet normal 0.891195509162 0.453619404843 -0
 outer loop
  vertex 4.09688444668 22.1816219834 0
  vertex 4.09688444668 22.1816219834 1.5
  vertex 4.36523984882 21.6544021892 1.5
 endloop
endfacet
facet normal 0.978839630647 -0.204628877424 0
 outer loop
  vertex 3.86487725472 23.9241043427 0
  vertex 3.98593306517 24.5031732712 0
  vertex 3.86487725472 23.9241043427 1.5
 endloop
endfacet
facet normal 0.802066373383 0.597234905785 -0
 outer loop
  vertex 4.36523984882 21.6544021892 0
  vertex 4.36523984882 21.6544021892 1.5
  vertex 4.71855633308 21.1799100448 1.5
 endloop
endfacet
facet normal 0.991252014528 0.131982740136 3.12597924165e-16
 outer loop
  vertex 3.92115688351 22.7465070662 0
  vertex 3.84307759297 23.3329190012 0
  vertex 3.92115688351 22.7465070662 1.5
 endloop
endfacet
facet normal 0.690022670563 0.723787754877 -0
 outer loop
  vertex 4.71855633308 21.1799100448 0
  vertex 4.71855633308 21.1799100448 1.5
  vertex 5.14673985422 20.771701513 1.5
 endloop
endfacet
facet normal 0.891195509162 0.453619404843 -0
 outer loop
  vertex 4.36523984882 21.6544021892 0
  vertex 4.09688444668 22.1816219834 0
  vertex 4.36523984882 21.6544021892 1.5
 endloop
endfacet
facet normal 0.558265423738 0.829662411261 -6.61119069105e-16
 outer loop
  vertex 5.14673985422 20.771701513 0
  vertex 5.14673985422 20.771701513 1.5
  vertex 5.63755745954 20.4414388728 1.5
 endloop
endfacet
facet normal 0.690022670563 0.723787754877 -8.17150993463e-16
 outer loop
  vertex 5.14673985422 20.771701513 0
  vertex 4.71855633308 21.1799100448 0
  vertex 5.14673985422 20.771701513 1.5
 endloop
endfacet
facet normal 0.410558860367 0.911834097944 -2.43099679863e-16
 outer loop
  vertex 5.63755745954 20.4414388728 0
  vertex 5.63755745954 20.4414388728 1.5
  vertex 6.17698677721 20.1985575346 1.5
 endloop
endfacet
facet normal 0.410558860367 0.911834097944 2.43099679863e-16
 outer loop
  vertex 6.17698677721 20.1985575346 0
  vertex 5.63755745954 20.4414388728 0
  vertex 6.17698677721 20.1985575346 1.5
 endloop
endfacet
facet normal 0.251122870551 0.967955217914 1.48694609545e-16
 outer loop
  vertex 6.17698677721 20.1985575346 0
  vertex 6.17698677721 20.1985575346 1.5
  vertex 6.74961662721 20.0499964762 1.5
 endloop
endfacet
facet normal 0.0845124472418 0.996422423604 5.00414212242e-17
 outer loop
  vertex 6.74961662721 20.0499964762 0
  vertex 6.74961662721 20.0499964762 1.5
  vertex 7.33908730975 20 0
 endloop
endfacet
facet normal 0.939786745603 0.341761426713 0
 outer loop
  vertex 19.3483737456 22.0401327294 0
  vertex 19.1536931858 22.5754716981 0
  vertex 19.1536931858 22.5754716981 1.5
 endloop
endfacet
facet normal 0.939786745603 0.341761426713 8.09453663714e-16
 outer loop
  vertex 19.3483737456 22.0401327294 1.5
  vertex 19.3483737456 22.0401327294 0
  vertex 19.1536931858 22.5754716981 1.5
 endloop
endfacet
facet normal 0.871901276137 0.4896816973 0
 outer loop
  vertex 19.6273154269 21.5434639561 1.5
  vertex 19.6273154269 21.5434639561 0
  vertex 19.3483737456 22.0401327294 0
 endloop
endfacet
facet normal 0.780920150294 0.624630866084 0
 outer loop
  vertex 19.9831293871 21.0986215598 1.5
  vertex 19.9831293871 21.0986215598 0
  vertex 19.6273154269 21.5434639561 0
 endloop
endfacet
facet normal 0.66925335287 0.743034285664 0
 outer loop
  vertex 20.4063905259 20.717388901 1.5
  vertex 20.4063905259 20.717388901 0
  vertex 19.9831293871 21.0986215598 0
 endloop
endfacet
facet normal 0.539858808176 0.841755586399 0
 outer loop
  vertex 20.8858871454 20.4098643919 1.5
  vertex 20.8858871454 20.4098643919 0
  vertex 20.4063905259 20.717388901 0
 endloop
endfacet
facet normal 0.396164028047 0.918179755212 0
 outer loop
  vertex 21.4089179347 20.184194001 1.5
  vertex 21.4089179347 20.184194001 0
  vertex 20.8858871454 20.4098643919 0
 endloop
endfacet
facet normal 0.241975321012 0.970282404262 0
 outer loop
  vertex 21.961628413 20.046355476 1.5
  vertex 21.961628413 20.046355476 0
  vertex 21.4089179347 20.184194001 0
 endloop
endfacet
facet normal 0.0813769675879 0.996683394638 0
 outer loop
  vertex 22.5293779191 20 1.5
  vertex 22.5293779191 20 0
  vertex 21.961628413 20.046355476 0
 endloop
endfacet
facet normal 0.0813769675879 0.996683394638 0
 outer loop
  vertex 21.961628413 20.046355476 1.5
  vertex 22.5293779191 20 1.5
  vertex 21.961628413 20.046355476 0
 endloop
endfacet
facet normal 0.241975321012 0.970282404262 0
 outer loop
  vertex 21.4089179347 20.184194001 1.5
  vertex 21.961628413 20.046355476 1.5
  vertex 21.4089179347 20.184194001 0
 endloop
endfacet
facet normal 0.396164028047 0.918179755212 0
 outer loop
  vertex 20.8858871454 20.4098643919 1.5
  vertex 21.4089179347 20.184194001 1.5
  vertex 20.8858871454 20.4098643919 0
 endloop
endfacet
facet normal 0.539858808176 0.841755586399 0
 outer loop
  vertex 20.4063905259 20.717388901 1.5
  vertex 20.8858871454 20.4098643919 1.5
  vertex 20.4063905259 20.717388901 0
 endloop
endfacet
facet normal 0.66925335287 0.743034285664 0
 outer loop
  vertex 19.9831293871 21.0986215598 1.5
  vertex 20.4063905259 20.717388901 1.5
  vertex 19.9831293871 21.0986215598 0
 endloop
endfacet
facet normal 0.780920150294 0.624630866084 0
 outer loop
  vertex 19.6273154269 21.5434639561 1.5
  vertex 19.9831293871 21.0986215598 1.5
  vertex 19.6273154269 21.5434639561 0
 endloop
endfacet
facet normal 0.871901276137 0.4896816973 1.15979924284e-15
 outer loop
  vertex 19.3483737456 22.0401327294 1.5
  vertex 19.6273154269 21.5434639561 1.5
  vertex 19.3483737456 22.0401327294 0
 endloop
endfacet
endsolid CAD Exchanger 3.19.0 (cadexchanger.com)
